<?xml version="1.0" encoding="UTF-8"?>
<svg xmlns="http://www.w3.org/2000/svg" xmlns:xlink="http://www.w3.org/1999/xlink" width="2160" height="3840" viewBox="0 0 2160 3840">
<defs>
<g>
<g id="glyph-0-0">
<path d="M 1.359375 0.0507812 C 1.203125 0.0507812 1.050781 0.0234375 0.90625 -0.0351562 C 0.761719 -0.0898438 0.632812 -0.171875 0.523438 -0.277344 C 0.414062 -0.382812 0.324219 -0.507812 0.261719 -0.652344 C 0.195312 -0.796875 0.164062 -0.960938 0.164062 -1.136719 C 0.164062 -1.300781 0.1875 -1.457031 0.242188 -1.609375 C 0.296875 -1.757812 0.375 -1.894531 0.476562 -2.011719 C 0.578125 -2.128906 0.707031 -2.222656 0.863281 -2.292969 C 1.015625 -2.363281 1.195312 -2.398438 1.394531 -2.398438 C 1.554688 -2.398438 1.703125 -2.367188 1.847656 -2.3125 C 1.992188 -2.257812 2.121094 -2.175781 2.230469 -2.070312 C 2.339844 -1.964844 2.429688 -1.839844 2.496094 -1.695312 C 2.558594 -1.550781 2.59375 -1.386719 2.59375 -1.210938 C 2.59375 -1.046875 2.566406 -0.890625 2.511719 -0.738281 C 2.460938 -0.585938 2.382812 -0.453125 2.277344 -0.335938 C 2.175781 -0.21875 2.046875 -0.125 1.890625 -0.0546875 C 1.738281 0.015625 1.5625 0.0507812 1.359375 0.0507812 Z M 1.414062 -0.09375 C 1.601562 -0.09375 1.753906 -0.132812 1.878906 -0.210938 C 2 -0.289062 2.09375 -0.398438 2.152344 -0.539062 C 2.214844 -0.679688 2.246094 -0.84375 2.246094 -1.03125 C 2.246094 -1.199219 2.226562 -1.355469 2.1875 -1.5 C 2.148438 -1.648438 2.09375 -1.777344 2.015625 -1.890625 C 1.941406 -2.003906 1.847656 -2.089844 1.734375 -2.152344 C 1.621094 -2.214844 1.488281 -2.246094 1.335938 -2.246094 C 1.15625 -2.246094 1.003906 -2.207031 0.882812 -2.128906 C 0.757812 -2.050781 0.664062 -1.945312 0.601562 -1.808594 C 0.539062 -1.667969 0.507812 -1.503906 0.507812 -1.316406 C 0.507812 -1.148438 0.527344 -0.992188 0.566406 -0.84375 C 0.601562 -0.699219 0.660156 -0.566406 0.734375 -0.453125 C 0.808594 -0.339844 0.90625 -0.253906 1.019531 -0.191406 C 1.132812 -0.125 1.261719 -0.09375 1.414062 -0.09375 Z "/>
</g>
<g id="glyph-0-1">
<path d="M 0.191406 0.0195312 C 0.160156 0.0195312 0.136719 0.015625 0.117188 0.0078125 C 0.0976562 0.00390625 0.0859375 -0.0078125 0.0859375 -0.0234375 C 0.0859375 -0.0507812 0.125 -0.0703125 0.207031 -0.0859375 C 0.296875 -0.101562 0.363281 -0.132812 0.40625 -0.167969 C 0.449219 -0.207031 0.46875 -0.273438 0.46875 -0.359375 L 0.46875 -1.882812 C 0.46875 -1.992188 0.457031 -2.074219 0.429688 -2.132812 C 0.402344 -2.191406 0.339844 -2.230469 0.25 -2.246094 C 0.207031 -2.253906 0.179688 -2.261719 0.160156 -2.273438 C 0.140625 -2.285156 0.128906 -2.300781 0.128906 -2.316406 C 0.128906 -2.332031 0.140625 -2.34375 0.160156 -2.347656 C 0.179688 -2.355469 0.203125 -2.359375 0.234375 -2.359375 C 0.300781 -2.359375 0.347656 -2.359375 0.382812 -2.359375 C 0.414062 -2.359375 0.445312 -2.355469 0.472656 -2.355469 C 0.5 -2.355469 0.539062 -2.355469 0.589844 -2.355469 C 0.636719 -2.355469 0.683594 -2.355469 0.734375 -2.359375 C 0.785156 -2.363281 0.832031 -2.367188 0.875 -2.371094 C 0.917969 -2.375 0.957031 -2.375 0.988281 -2.375 C 1.261719 -2.375 1.484375 -2.320312 1.652344 -2.207031 C 1.820312 -2.09375 1.902344 -1.933594 1.902344 -1.734375 C 1.902344 -1.585938 1.875 -1.449219 1.816406 -1.328125 C 1.757812 -1.203125 1.667969 -1.105469 1.550781 -1.027344 C 1.429688 -0.953125 1.277344 -0.917969 1.09375 -0.917969 C 1.039062 -0.917969 1 -0.925781 0.972656 -0.941406 C 0.945312 -0.957031 0.929688 -0.972656 0.929688 -0.984375 C 0.929688 -0.996094 0.9375 -1.007812 0.953125 -1.019531 C 0.964844 -1.03125 0.976562 -1.035156 0.988281 -1.035156 C 1 -1.035156 1.019531 -1.035156 1.046875 -1.03125 C 1.070312 -1.03125 1.105469 -1.027344 1.15625 -1.027344 C 1.300781 -1.027344 1.410156 -1.089844 1.480469 -1.210938 C 1.554688 -1.332031 1.59375 -1.496094 1.59375 -1.707031 C 1.59375 -1.898438 1.535156 -2.042969 1.421875 -2.136719 C 1.308594 -2.230469 1.164062 -2.273438 0.988281 -2.273438 C 0.921875 -2.273438 0.867188 -2.261719 0.824219 -2.238281 C 0.78125 -2.214844 0.757812 -2.179688 0.757812 -2.121094 L 0.757812 -0.402344 C 0.757812 -0.316406 0.777344 -0.246094 0.8125 -0.191406 C 0.847656 -0.136719 0.910156 -0.101562 1 -0.0859375 C 1.039062 -0.078125 1.070312 -0.0703125 1.089844 -0.0625 C 1.109375 -0.0507812 1.121094 -0.0390625 1.121094 -0.0234375 C 1.121094 -0.0078125 1.109375 0.00390625 1.089844 0.0078125 C 1.070312 0.015625 1.046875 0.0195312 1.015625 0.0195312 C 0.949219 0.0195312 0.898438 0.015625 0.863281 0.0117188 C 0.828125 0.0078125 0.796875 0 0.769531 0 C 0.742188 -0.00390625 0.707031 -0.0078125 0.660156 -0.0078125 C 0.601562 -0.0078125 0.546875 -0.00390625 0.5 0 C 0.453125 0.00390625 0.40625 0.0078125 0.359375 0.0117188 C 0.3125 0.015625 0.257812 0.0195312 0.191406 0.0195312 Z "/>
</g>
<g id="glyph-0-2">
<path d="M 0.238281 0.0195312 C 0.207031 0.0195312 0.183594 0.015625 0.164062 0.0078125 C 0.144531 0.00390625 0.132812 -0.0078125 0.132812 -0.0234375 C 0.132812 -0.0507812 0.171875 -0.0703125 0.253906 -0.0859375 C 0.34375 -0.101562 0.410156 -0.132812 0.453125 -0.167969 C 0.496094 -0.207031 0.519531 -0.269531 0.519531 -0.359375 L 0.519531 -1.980469 C 0.519531 -2.066406 0.503906 -2.128906 0.46875 -2.167969 C 0.433594 -2.203125 0.371094 -2.230469 0.277344 -2.246094 C 0.238281 -2.253906 0.207031 -2.261719 0.1875 -2.273438 C 0.167969 -2.285156 0.160156 -2.300781 0.160156 -2.316406 C 0.160156 -2.332031 0.167969 -2.34375 0.1875 -2.347656 C 0.207031 -2.355469 0.230469 -2.359375 0.261719 -2.359375 C 0.355469 -2.359375 0.433594 -2.355469 0.496094 -2.355469 C 0.558594 -2.351562 0.621094 -2.351562 0.683594 -2.347656 C 0.746094 -2.347656 0.816406 -2.347656 0.902344 -2.347656 C 0.980469 -2.347656 1.066406 -2.347656 1.152344 -2.347656 C 1.242188 -2.347656 1.324219 -2.351562 1.398438 -2.351562 C 1.480469 -2.351562 1.546875 -2.355469 1.605469 -2.355469 C 1.660156 -2.355469 1.695312 -2.359375 1.703125 -2.359375 C 1.714844 -2.359375 1.730469 -2.355469 1.742188 -2.351562 C 1.757812 -2.347656 1.765625 -2.335938 1.769531 -2.324219 C 1.78125 -2.257812 1.792969 -2.191406 1.804688 -2.125 C 1.816406 -2.058594 1.824219 -2 1.824219 -1.953125 C 1.824219 -1.929688 1.816406 -1.917969 1.808594 -1.910156 C 1.796875 -1.902344 1.785156 -1.898438 1.773438 -1.898438 C 1.761719 -1.898438 1.753906 -1.902344 1.746094 -1.90625 C 1.742188 -1.914062 1.738281 -1.921875 1.734375 -1.933594 C 1.722656 -1.976562 1.707031 -2.015625 1.695312 -2.050781 C 1.683594 -2.089844 1.671875 -2.117188 1.652344 -2.132812 C 1.621094 -2.171875 1.582031 -2.199219 1.542969 -2.210938 C 1.5 -2.222656 1.457031 -2.230469 1.410156 -2.230469 L 0.9375 -2.230469 C 0.917969 -2.230469 0.894531 -2.21875 0.859375 -2.199219 C 0.824219 -2.175781 0.808594 -2.148438 0.808594 -2.117188 L 0.808594 -1.351562 C 0.808594 -1.328125 0.816406 -1.308594 0.828125 -1.292969 C 0.839844 -1.277344 0.855469 -1.269531 0.875 -1.269531 L 1.230469 -1.269531 C 1.300781 -1.269531 1.347656 -1.285156 1.375 -1.308594 C 1.402344 -1.332031 1.421875 -1.378906 1.441406 -1.449219 C 1.457031 -1.5 1.476562 -1.527344 1.503906 -1.527344 C 1.515625 -1.527344 1.523438 -1.523438 1.535156 -1.511719 C 1.546875 -1.503906 1.550781 -1.488281 1.550781 -1.46875 C 1.550781 -1.460938 1.550781 -1.4375 1.550781 -1.40625 C 1.550781 -1.371094 1.546875 -1.335938 1.546875 -1.300781 C 1.542969 -1.265625 1.542969 -1.234375 1.542969 -1.214844 C 1.542969 -1.191406 1.542969 -1.160156 1.542969 -1.121094 C 1.542969 -1.082031 1.546875 -1.042969 1.546875 -1.007812 C 1.546875 -0.972656 1.550781 -0.949219 1.550781 -0.9375 C 1.550781 -0.921875 1.546875 -0.90625 1.542969 -0.894531 C 1.539062 -0.882812 1.53125 -0.878906 1.515625 -0.878906 C 1.480469 -0.878906 1.453125 -0.914062 1.433594 -0.992188 C 1.417969 -1.046875 1.398438 -1.089844 1.375 -1.117188 C 1.351562 -1.144531 1.316406 -1.15625 1.265625 -1.15625 L 0.929688 -1.15625 C 0.890625 -1.15625 0.859375 -1.148438 0.839844 -1.140625 C 0.820312 -1.128906 0.808594 -1.101562 0.808594 -1.0625 L 0.808594 -0.367188 C 0.808594 -0.277344 0.828125 -0.214844 0.867188 -0.179688 C 0.90625 -0.144531 0.964844 -0.125 1.046875 -0.125 L 1.3125 -0.125 C 1.390625 -0.125 1.457031 -0.128906 1.507812 -0.140625 C 1.558594 -0.148438 1.605469 -0.164062 1.644531 -0.1875 C 1.683594 -0.214844 1.714844 -0.25 1.746094 -0.292969 C 1.777344 -0.335938 1.808594 -0.394531 1.847656 -0.464844 C 1.855469 -0.480469 1.863281 -0.492188 1.875 -0.5 C 1.882812 -0.511719 1.894531 -0.515625 1.90625 -0.511719 C 1.917969 -0.511719 1.929688 -0.503906 1.933594 -0.496094 C 1.941406 -0.488281 1.945312 -0.476562 1.945312 -0.460938 C 1.945312 -0.441406 1.941406 -0.402344 1.929688 -0.347656 C 1.917969 -0.292969 1.902344 -0.238281 1.882812 -0.179688 C 1.863281 -0.121094 1.847656 -0.078125 1.835938 -0.0429688 C 1.828125 -0.0273438 1.820312 -0.0117188 1.8125 0 C 1.808594 0.0117188 1.796875 0.0195312 1.785156 0.0195312 C 1.667969 0.0195312 1.5625 0.015625 1.460938 0.015625 C 1.363281 0.0117188 1.269531 0.0078125 1.179688 0.0078125 C 1.089844 0.00390625 1.003906 0.00390625 0.917969 0 C 0.832031 -0.00390625 0.746094 -0.00390625 0.652344 -0.00390625 C 0.601562 -0.00390625 0.554688 0 0.515625 0 C 0.476562 0.00390625 0.4375 0.0078125 0.398438 0.0117188 C 0.355469 0.015625 0.304688 0.0195312 0.238281 0.0195312 Z "/>
</g>
<g id="glyph-0-3">
<path d="M 2.300781 0.0742188 C 2.234375 0.0742188 2.167969 0.0703125 2.109375 0.0585938 C 2.046875 0.046875 1.992188 0.0273438 1.941406 0 C 1.890625 -0.0273438 1.84375 -0.0703125 1.800781 -0.121094 C 1.742188 -0.191406 1.6875 -0.261719 1.636719 -0.328125 C 1.582031 -0.394531 1.527344 -0.46875 1.46875 -0.554688 C 1.410156 -0.640625 1.335938 -0.753906 1.253906 -0.886719 C 1.21875 -0.949219 1.164062 -0.996094 1.097656 -1.027344 C 1.042969 -1.054688 0.992188 -1.074219 0.941406 -1.085938 C 0.890625 -1.097656 0.847656 -1.101562 0.8125 -1.105469 C 0.792969 -1.105469 0.777344 -1.101562 0.769531 -1.085938 C 0.761719 -1.070312 0.757812 -1.054688 0.757812 -1.03125 L 0.757812 -0.398438 C 0.757812 -0.320312 0.777344 -0.253906 0.8125 -0.195312 C 0.847656 -0.140625 0.910156 -0.101562 1 -0.0859375 C 1.039062 -0.078125 1.070312 -0.0703125 1.089844 -0.0625 C 1.109375 -0.0507812 1.121094 -0.0390625 1.121094 -0.0234375 C 1.121094 -0.0078125 1.109375 0.00390625 1.089844 0.0078125 C 1.070312 0.015625 1.046875 0.0195312 1.015625 0.0195312 C 0.949219 0.0195312 0.898438 0.015625 0.863281 0.0117188 C 0.828125 0.0078125 0.796875 0 0.769531 0 C 0.742188 -0.00390625 0.707031 -0.0078125 0.660156 -0.0078125 C 0.601562 -0.0078125 0.546875 -0.00390625 0.5 0 C 0.453125 0.00390625 0.40625 0.0078125 0.359375 0.0117188 C 0.3125 0.015625 0.257812 0.0195312 0.191406 0.0195312 C 0.160156 0.0195312 0.136719 0.015625 0.117188 0.0078125 C 0.0976562 0.00390625 0.0859375 -0.0078125 0.0859375 -0.0234375 C 0.0859375 -0.0507812 0.125 -0.0703125 0.207031 -0.0859375 C 0.296875 -0.101562 0.363281 -0.132812 0.40625 -0.167969 C 0.449219 -0.207031 0.46875 -0.273438 0.46875 -0.359375 L 0.46875 -1.898438 C 0.46875 -1.992188 0.464844 -2.058594 0.457031 -2.105469 C 0.449219 -2.152344 0.429688 -2.1875 0.398438 -2.207031 C 0.367188 -2.226562 0.320312 -2.238281 0.25 -2.246094 C 0.207031 -2.25 0.179688 -2.257812 0.160156 -2.273438 C 0.140625 -2.285156 0.128906 -2.300781 0.128906 -2.316406 C 0.128906 -2.332031 0.140625 -2.34375 0.160156 -2.347656 C 0.179688 -2.355469 0.203125 -2.359375 0.234375 -2.359375 C 0.300781 -2.359375 0.347656 -2.359375 0.382812 -2.359375 C 0.414062 -2.359375 0.445312 -2.355469 0.472656 -2.355469 C 0.5 -2.355469 0.539062 -2.355469 0.589844 -2.355469 C 0.632812 -2.355469 0.675781 -2.355469 0.710938 -2.359375 C 0.746094 -2.363281 0.789062 -2.367188 0.832031 -2.367188 C 0.875 -2.371094 0.933594 -2.371094 1.003906 -2.371094 C 1.269531 -2.371094 1.46875 -2.324219 1.609375 -2.222656 C 1.746094 -2.125 1.816406 -1.976562 1.816406 -1.78125 C 1.816406 -1.671875 1.792969 -1.578125 1.75 -1.5 C 1.707031 -1.421875 1.652344 -1.355469 1.589844 -1.304688 C 1.523438 -1.25 1.457031 -1.207031 1.390625 -1.171875 C 1.378906 -1.171875 1.375 -1.164062 1.378906 -1.15625 C 1.378906 -1.148438 1.382812 -1.136719 1.390625 -1.125 C 1.464844 -1.011719 1.535156 -0.90625 1.605469 -0.804688 C 1.671875 -0.703125 1.75 -0.605469 1.832031 -0.507812 C 1.914062 -0.414062 2.007812 -0.3125 2.121094 -0.210938 C 2.183594 -0.15625 2.25 -0.121094 2.3125 -0.109375 C 2.378906 -0.0976562 2.453125 -0.0898438 2.539062 -0.0898438 C 2.574219 -0.0898438 2.59375 -0.078125 2.59375 -0.0507812 C 2.59375 -0.015625 2.574219 0.0117188 2.539062 0.03125 C 2.503906 0.0507812 2.460938 0.0625 2.414062 0.0664062 C 2.371094 0.0742188 2.332031 0.0742188 2.300781 0.0742188 Z M 0.949219 -1.1875 C 1.058594 -1.1875 1.15625 -1.214844 1.238281 -1.261719 C 1.316406 -1.3125 1.378906 -1.378906 1.425781 -1.460938 C 1.46875 -1.542969 1.492188 -1.628906 1.492188 -1.722656 C 1.492188 -1.820312 1.476562 -1.910156 1.453125 -1.992188 C 1.429688 -2.074219 1.378906 -2.140625 1.300781 -2.191406 C 1.226562 -2.238281 1.113281 -2.265625 0.960938 -2.265625 C 0.882812 -2.265625 0.832031 -2.238281 0.808594 -2.191406 C 0.785156 -2.140625 0.769531 -2.054688 0.765625 -1.929688 C 0.761719 -1.867188 0.761719 -1.785156 0.761719 -1.683594 C 0.757812 -1.582031 0.757812 -1.457031 0.757812 -1.3125 C 0.757812 -1.253906 0.773438 -1.21875 0.808594 -1.207031 C 0.84375 -1.195312 0.890625 -1.1875 0.949219 -1.1875 Z "/>
</g>
<g id="glyph-0-4">
<path d="M 0.0976562 0.0195312 C 0.0664062 0.0195312 0.0390625 0.015625 0.0234375 0.00390625 C 0.00390625 -0.00390625 -0.0078125 -0.015625 -0.0078125 -0.0273438 C -0.0078125 -0.046875 0.00390625 -0.0625 0.0234375 -0.0742188 C 0.0429688 -0.0859375 0.0742188 -0.101562 0.113281 -0.113281 C 0.175781 -0.132812 0.230469 -0.160156 0.285156 -0.199219 C 0.339844 -0.238281 0.382812 -0.300781 0.421875 -0.390625 C 0.488281 -0.542969 0.550781 -0.6875 0.609375 -0.824219 C 0.664062 -0.957031 0.71875 -1.089844 0.769531 -1.21875 C 0.820312 -1.351562 0.871094 -1.484375 0.925781 -1.625 C 0.980469 -1.765625 1.039062 -1.921875 1.097656 -2.085938 C 1.109375 -2.121094 1.121094 -2.152344 1.128906 -2.1875 C 1.140625 -2.222656 1.144531 -2.257812 1.148438 -2.296875 C 1.167969 -2.304688 1.191406 -2.3125 1.214844 -2.316406 C 1.234375 -2.324219 1.257812 -2.335938 1.277344 -2.351562 C 1.300781 -2.363281 1.316406 -2.386719 1.324219 -2.414062 C 1.332031 -2.445312 1.339844 -2.464844 1.347656 -2.472656 C 1.347656 -2.476562 1.351562 -2.476562 1.355469 -2.476562 C 1.359375 -2.476562 1.363281 -2.472656 1.363281 -2.46875 C 1.367188 -2.460938 1.375 -2.449219 1.378906 -2.433594 C 1.382812 -2.417969 1.386719 -2.40625 1.390625 -2.390625 C 1.449219 -2.207031 1.507812 -2.019531 1.570312 -1.832031 C 1.632812 -1.640625 1.695312 -1.457031 1.753906 -1.28125 C 1.8125 -1.101562 1.867188 -0.945312 1.914062 -0.804688 C 1.964844 -0.664062 2.003906 -0.546875 2.03125 -0.460938 C 2.066406 -0.367188 2.101562 -0.292969 2.140625 -0.246094 C 2.179688 -0.199219 2.21875 -0.164062 2.261719 -0.144531 C 2.304688 -0.125 2.347656 -0.109375 2.398438 -0.101562 C 2.4375 -0.09375 2.46875 -0.0820312 2.488281 -0.0664062 C 2.507812 -0.0507812 2.515625 -0.0351562 2.515625 -0.0195312 C 2.515625 -0.00390625 2.507812 0.0078125 2.488281 0.0117188 C 2.46875 0.015625 2.441406 0.0195312 2.410156 0.0195312 C 2.378906 0.0195312 2.332031 0.015625 2.273438 0.0117188 C 2.214844 0.0078125 2.15625 0.00390625 2.089844 0 C 2.023438 -0.00390625 1.964844 -0.00390625 1.910156 -0.00390625 C 1.863281 -0.00390625 1.816406 -0.00390625 1.769531 -0.00390625 C 1.722656 -0.00390625 1.675781 -0.00390625 1.636719 0 C 1.59375 0 1.558594 0 1.53125 0 C 1.5 0 1.472656 -0.00390625 1.453125 -0.0117188 C 1.433594 -0.0195312 1.425781 -0.0273438 1.425781 -0.0429688 C 1.425781 -0.0585938 1.4375 -0.0742188 1.460938 -0.0859375 C 1.484375 -0.0976562 1.515625 -0.105469 1.546875 -0.113281 C 1.625 -0.125 1.679688 -0.144531 1.714844 -0.171875 C 1.75 -0.203125 1.765625 -0.234375 1.765625 -0.273438 C 1.765625 -0.308594 1.757812 -0.363281 1.742188 -0.429688 C 1.726562 -0.5 1.707031 -0.574219 1.6875 -0.652344 C 1.664062 -0.730469 1.644531 -0.800781 1.625 -0.859375 C 1.621094 -0.878906 1.609375 -0.890625 1.597656 -0.894531 C 1.585938 -0.898438 1.5625 -0.898438 1.527344 -0.898438 L 0.84375 -0.898438 C 0.835938 -0.898438 0.824219 -0.894531 0.8125 -0.886719 C 0.804688 -0.878906 0.792969 -0.859375 0.785156 -0.835938 C 0.777344 -0.8125 0.765625 -0.773438 0.746094 -0.71875 C 0.730469 -0.667969 0.714844 -0.613281 0.695312 -0.554688 C 0.679688 -0.496094 0.664062 -0.445312 0.652344 -0.402344 C 0.640625 -0.355469 0.636719 -0.324219 0.636719 -0.3125 C 0.636719 -0.261719 0.65625 -0.21875 0.695312 -0.183594 C 0.738281 -0.148438 0.785156 -0.121094 0.84375 -0.109375 C 0.925781 -0.0859375 0.964844 -0.0625 0.964844 -0.0351562 C 0.964844 -0.0195312 0.953125 -0.0117188 0.933594 -0.00390625 C 0.914062 0 0.890625 0.00390625 0.859375 0.00390625 C 0.828125 0.00390625 0.78125 0.00390625 0.722656 0 C 0.660156 -0.00390625 0.597656 -0.00390625 0.53125 -0.00390625 C 0.453125 -0.00390625 0.375 0 0.300781 0.0078125 C 0.226562 0.015625 0.15625 0.0195312 0.0976562 0.0195312 Z M 0.941406 -1.019531 L 1.5 -1.019531 C 1.535156 -1.019531 1.550781 -1.023438 1.550781 -1.035156 C 1.550781 -1.039062 1.550781 -1.046875 1.550781 -1.050781 C 1.550781 -1.058594 1.546875 -1.066406 1.546875 -1.074219 L 1.261719 -1.953125 C 1.25 -1.996094 1.238281 -2.019531 1.230469 -2.019531 C 1.226562 -2.019531 1.214844 -1.996094 1.203125 -1.957031 L 0.875 -1.074219 C 0.871094 -1.058594 0.867188 -1.046875 0.867188 -1.042969 C 0.867188 -1.03125 0.875 -1.023438 0.886719 -1.023438 C 0.898438 -1.019531 0.917969 -1.019531 0.941406 -1.019531 Z "/>
</g>
<g id="glyph-0-5">
<path d="M 0.773438 0.0195312 C 0.742188 0.0195312 0.714844 0.015625 0.695312 0.0078125 C 0.675781 0.00390625 0.667969 -0.0078125 0.667969 -0.0234375 C 0.667969 -0.0390625 0.675781 -0.0507812 0.695312 -0.0625 C 0.714844 -0.0703125 0.746094 -0.078125 0.785156 -0.0859375 C 0.878906 -0.101562 0.949219 -0.132812 0.996094 -0.175781 C 1.042969 -0.21875 1.070312 -0.28125 1.070312 -0.367188 L 1.070312 -1.769531 C 1.070312 -1.878906 1.066406 -1.964844 1.0625 -2.023438 C 1.058594 -2.082031 1.046875 -2.125 1.039062 -2.148438 C 1.027344 -2.171875 1.011719 -2.183594 0.992188 -2.1875 C 0.957031 -2.195312 0.921875 -2.199219 0.886719 -2.199219 C 0.847656 -2.203125 0.800781 -2.203125 0.738281 -2.203125 L 0.566406 -2.203125 C 0.507812 -2.203125 0.453125 -2.191406 0.394531 -2.167969 C 0.339844 -2.144531 0.296875 -2.109375 0.269531 -2.0625 C 0.261719 -2.050781 0.25 -2.03125 0.234375 -2.007812 C 0.21875 -1.984375 0.199219 -1.964844 0.179688 -1.949219 C 0.160156 -1.933594 0.140625 -1.925781 0.121094 -1.925781 C 0.113281 -1.925781 0.105469 -1.929688 0.101562 -1.9375 C 0.0976562 -1.949219 0.0976562 -1.960938 0.0976562 -1.972656 C 0.0976562 -1.996094 0.101562 -2.019531 0.117188 -2.042969 C 0.148438 -2.113281 0.175781 -2.175781 0.191406 -2.230469 C 0.207031 -2.285156 0.21875 -2.347656 0.226562 -2.421875 C 0.230469 -2.464844 0.242188 -2.488281 0.253906 -2.496094 C 0.265625 -2.503906 0.277344 -2.503906 0.289062 -2.503906 C 0.296875 -2.503906 0.3125 -2.492188 0.332031 -2.460938 C 0.355469 -2.433594 0.371094 -2.410156 0.378906 -2.390625 C 0.394531 -2.367188 0.425781 -2.347656 0.476562 -2.335938 C 0.53125 -2.324219 0.582031 -2.316406 0.632812 -2.316406 L 1.902344 -2.316406 C 1.988281 -2.316406 2.054688 -2.324219 2.109375 -2.332031 C 2.160156 -2.34375 2.207031 -2.355469 2.246094 -2.371094 C 2.273438 -2.386719 2.296875 -2.402344 2.316406 -2.417969 C 2.335938 -2.433594 2.359375 -2.445312 2.386719 -2.445312 C 2.394531 -2.445312 2.398438 -2.433594 2.40625 -2.417969 C 2.410156 -2.398438 2.410156 -2.378906 2.410156 -2.359375 C 2.410156 -2.347656 2.410156 -2.332031 2.40625 -2.3125 C 2.402344 -2.289062 2.398438 -2.273438 2.398438 -2.261719 C 2.390625 -2.21875 2.382812 -2.183594 2.378906 -2.167969 C 2.371094 -2.148438 2.367188 -2.128906 2.363281 -2.117188 C 2.363281 -2.101562 2.359375 -2.078125 2.359375 -2.046875 L 2.359375 -2.003906 C 2.359375 -1.980469 2.355469 -1.957031 2.347656 -1.929688 C 2.335938 -1.902344 2.324219 -1.886719 2.304688 -1.886719 C 2.285156 -1.886719 2.273438 -1.902344 2.265625 -1.929688 C 2.253906 -1.953125 2.246094 -1.992188 2.234375 -2.035156 C 2.226562 -2.085938 2.195312 -2.128906 2.148438 -2.15625 C 2.101562 -2.1875 2.019531 -2.203125 1.902344 -2.203125 L 1.539062 -2.203125 C 1.484375 -2.203125 1.445312 -2.195312 1.417969 -2.179688 C 1.390625 -2.164062 1.375 -2.128906 1.367188 -2.074219 C 1.359375 -2.015625 1.359375 -1.917969 1.359375 -1.789062 L 1.359375 -0.367188 C 1.359375 -0.28125 1.382812 -0.21875 1.433594 -0.175781 C 1.484375 -0.132812 1.554688 -0.101562 1.644531 -0.0859375 C 1.683594 -0.078125 1.714844 -0.0703125 1.734375 -0.0625 C 1.753906 -0.0507812 1.761719 -0.0390625 1.761719 -0.0234375 C 1.761719 -0.0078125 1.753906 0.00390625 1.734375 0.0078125 C 1.714844 0.015625 1.6875 0.0195312 1.65625 0.0195312 C 1.59375 0.0195312 1.539062 0.015625 1.496094 0.0117188 C 1.453125 0.0078125 1.414062 0.0078125 1.375 0.00390625 C 1.335938 0 1.289062 0 1.234375 0 C 1.175781 0 1.121094 0 1.078125 0.00390625 C 1.035156 0.0078125 0.988281 0.0078125 0.941406 0.0117188 C 0.894531 0.015625 0.835938 0.0195312 0.773438 0.0195312 Z "/>
</g>
<g id="glyph-0-6">
<rect x="0" y="0" width="0" height="0" mask="url(#mask-0)"/>
</g>
<g id="glyph-0-7">
<path d="M 0.199219 0.0195312 C 0.167969 0.0195312 0.144531 0.015625 0.125 0.00390625 C 0.105469 -0.00390625 0.0976562 -0.0117188 0.0976562 -0.0234375 C 0.0976562 -0.046875 0.109375 -0.0625 0.132812 -0.0703125 C 0.15625 -0.078125 0.167969 -0.0859375 0.175781 -0.0859375 C 0.269531 -0.105469 0.34375 -0.132812 0.394531 -0.171875 C 0.445312 -0.207031 0.46875 -0.265625 0.46875 -0.347656 L 0.46875 -2.023438 C 0.46875 -2.082031 0.464844 -2.121094 0.453125 -2.148438 C 0.441406 -2.175781 0.417969 -2.199219 0.386719 -2.210938 C 0.355469 -2.222656 0.308594 -2.234375 0.25 -2.246094 C 0.171875 -2.261719 0.128906 -2.285156 0.128906 -2.316406 C 0.128906 -2.332031 0.140625 -2.34375 0.160156 -2.347656 C 0.179688 -2.355469 0.203125 -2.359375 0.234375 -2.359375 C 0.300781 -2.359375 0.351562 -2.355469 0.390625 -2.355469 C 0.429688 -2.351562 0.46875 -2.351562 0.503906 -2.347656 C 0.542969 -2.347656 0.585938 -2.347656 0.640625 -2.347656 C 0.699219 -2.347656 0.75 -2.347656 0.792969 -2.347656 C 0.835938 -2.347656 0.882812 -2.351562 0.929688 -2.355469 C 0.972656 -2.355469 1.027344 -2.359375 1.09375 -2.359375 C 1.125 -2.359375 1.152344 -2.355469 1.167969 -2.347656 C 1.1875 -2.34375 1.199219 -2.332031 1.199219 -2.316406 C 1.199219 -2.300781 1.1875 -2.285156 1.167969 -2.273438 C 1.148438 -2.261719 1.121094 -2.253906 1.078125 -2.246094 C 0.988281 -2.230469 0.914062 -2.207031 0.851562 -2.1875 C 0.789062 -2.164062 0.757812 -2.117188 0.757812 -2.046875 L 0.757812 -0.347656 C 0.757812 -0.273438 0.773438 -0.214844 0.808594 -0.179688 C 0.84375 -0.144531 0.917969 -0.125 1.035156 -0.125 L 1.484375 -0.125 C 1.550781 -0.125 1.605469 -0.136719 1.65625 -0.15625 C 1.703125 -0.175781 1.742188 -0.199219 1.765625 -0.21875 C 1.8125 -0.261719 1.847656 -0.296875 1.871094 -0.332031 C 1.894531 -0.363281 1.921875 -0.410156 1.953125 -0.476562 C 1.957031 -0.492188 1.96875 -0.511719 1.984375 -0.542969 C 2 -0.570312 2.015625 -0.585938 2.03125 -0.585938 C 2.046875 -0.585938 2.058594 -0.578125 2.066406 -0.5625 C 2.074219 -0.546875 2.074219 -0.535156 2.074219 -0.519531 C 2.074219 -0.515625 2.074219 -0.515625 2.074219 -0.511719 C 2.074219 -0.507812 2.074219 -0.503906 2.074219 -0.5 C 2.054688 -0.4375 2.039062 -0.382812 2.027344 -0.332031 C 2.015625 -0.28125 2.003906 -0.234375 1.996094 -0.1875 C 1.988281 -0.140625 1.980469 -0.09375 1.976562 -0.0429688 C 1.972656 -0.0273438 1.96875 -0.0117188 1.960938 0 C 1.957031 0.0117188 1.945312 0.0195312 1.925781 0.0195312 C 1.804688 0.0195312 1.6875 0.015625 1.578125 0.015625 C 1.46875 0.0117188 1.359375 0.0117188 1.257812 0.0078125 C 1.15625 0.0078125 1.058594 0.0078125 0.964844 0.00390625 C 0.871094 0 0.777344 0 0.6875 0 C 0.625 0 0.558594 0 0.480469 0.00390625 C 0.40625 0.0078125 0.339844 0.0078125 0.285156 0.0117188 C 0.226562 0.015625 0.199219 0.0195312 0.199219 0.0195312 Z "/>
</g>
<g id="glyph-0-8">
<path d="M 0.65625 0.0195312 C 0.625 0.0195312 0.601562 0.015625 0.582031 0.0078125 C 0.5625 0.00390625 0.550781 -0.0078125 0.550781 -0.0234375 C 0.550781 -0.0390625 0.5625 -0.0507812 0.582031 -0.0625 C 0.601562 -0.0703125 0.628906 -0.078125 0.671875 -0.0859375 C 0.761719 -0.101562 0.832031 -0.136719 0.882812 -0.1875 C 0.929688 -0.234375 0.953125 -0.304688 0.953125 -0.390625 L 0.953125 -0.925781 C 0.953125 -0.972656 0.941406 -1.023438 0.914062 -1.082031 C 0.890625 -1.136719 0.871094 -1.175781 0.863281 -1.191406 L 0.441406 -1.882812 C 0.425781 -1.914062 0.398438 -1.953125 0.359375 -2.003906 C 0.324219 -2.058594 0.285156 -2.105469 0.242188 -2.152344 C 0.199219 -2.199219 0.160156 -2.226562 0.121094 -2.238281 C 0.0820312 -2.25 0.0507812 -2.261719 0.03125 -2.273438 C 0.0117188 -2.285156 0 -2.300781 0 -2.316406 C 0 -2.332031 0.0078125 -2.34375 0.0273438 -2.347656 C 0.046875 -2.355469 0.0742188 -2.359375 0.105469 -2.359375 C 0.160156 -2.359375 0.222656 -2.355469 0.296875 -2.351562 C 0.367188 -2.347656 0.445312 -2.347656 0.527344 -2.347656 C 0.582031 -2.347656 0.636719 -2.347656 0.683594 -2.351562 C 0.734375 -2.351562 0.777344 -2.355469 0.816406 -2.355469 C 0.847656 -2.355469 0.871094 -2.351562 0.890625 -2.34375 C 0.910156 -2.339844 0.921875 -2.328125 0.921875 -2.3125 C 0.921875 -2.296875 0.910156 -2.285156 0.890625 -2.273438 C 0.871094 -2.261719 0.84375 -2.25 0.800781 -2.242188 C 0.765625 -2.234375 0.738281 -2.222656 0.71875 -2.210938 C 0.695312 -2.199219 0.6875 -2.179688 0.6875 -2.152344 C 0.6875 -2.121094 0.703125 -2.078125 0.734375 -2.023438 L 1.066406 -1.40625 C 1.113281 -1.316406 1.148438 -1.269531 1.167969 -1.269531 C 1.179688 -1.269531 1.195312 -1.28125 1.214844 -1.300781 C 1.230469 -1.320312 1.253906 -1.359375 1.285156 -1.40625 C 1.339844 -1.492188 1.390625 -1.574219 1.433594 -1.648438 C 1.476562 -1.726562 1.527344 -1.820312 1.589844 -1.929688 C 1.613281 -1.96875 1.628906 -2.003906 1.640625 -2.035156 C 1.648438 -2.066406 1.652344 -2.089844 1.652344 -2.113281 C 1.652344 -2.15625 1.636719 -2.1875 1.605469 -2.207031 C 1.574219 -2.222656 1.539062 -2.234375 1.503906 -2.238281 C 1.480469 -2.242188 1.457031 -2.253906 1.429688 -2.265625 C 1.402344 -2.277344 1.386719 -2.292969 1.386719 -2.3125 C 1.386719 -2.324219 1.394531 -2.335938 1.414062 -2.339844 C 1.433594 -2.347656 1.460938 -2.351562 1.492188 -2.351562 C 1.546875 -2.351562 1.59375 -2.351562 1.628906 -2.347656 C 1.664062 -2.347656 1.707031 -2.347656 1.761719 -2.347656 C 1.835938 -2.347656 1.90625 -2.347656 1.976562 -2.351562 C 2.042969 -2.355469 2.097656 -2.359375 2.136719 -2.359375 C 2.167969 -2.359375 2.195312 -2.355469 2.214844 -2.347656 C 2.234375 -2.34375 2.242188 -2.332031 2.242188 -2.316406 C 2.242188 -2.300781 2.222656 -2.285156 2.183594 -2.269531 C 2.144531 -2.257812 2.101562 -2.242188 2.050781 -2.226562 C 1.988281 -2.210938 1.9375 -2.175781 1.894531 -2.125 C 1.851562 -2.074219 1.796875 -1.996094 1.734375 -1.898438 C 1.683594 -1.824219 1.644531 -1.761719 1.613281 -1.710938 C 1.578125 -1.660156 1.550781 -1.613281 1.523438 -1.570312 C 1.496094 -1.527344 1.464844 -1.480469 1.4375 -1.433594 C 1.410156 -1.386719 1.375 -1.332031 1.332031 -1.261719 C 1.300781 -1.210938 1.277344 -1.171875 1.265625 -1.140625 C 1.253906 -1.109375 1.246094 -1.082031 1.246094 -1.050781 C 1.242188 -1.023438 1.242188 -0.988281 1.242188 -0.9375 L 1.242188 -0.390625 C 1.242188 -0.308594 1.265625 -0.242188 1.316406 -0.191406 C 1.367188 -0.136719 1.4375 -0.101562 1.527344 -0.0859375 C 1.566406 -0.078125 1.597656 -0.0703125 1.617188 -0.0625 C 1.636719 -0.0507812 1.644531 -0.0390625 1.644531 -0.0234375 C 1.644531 -0.0078125 1.636719 0.00390625 1.617188 0.0078125 C 1.597656 0.015625 1.574219 0.0195312 1.542969 0.0195312 C 1.476562 0.0195312 1.421875 0.015625 1.382812 0.0117188 C 1.339844 0.0078125 1.296875 0.0078125 1.261719 0.00390625 C 1.222656 0 1.175781 0 1.121094 0 C 1.058594 0 1.007812 0 0.960938 0.00390625 C 0.917969 0.0078125 0.871094 0.0078125 0.824219 0.0117188 C 0.777344 0.015625 0.722656 0.0195312 0.65625 0.0195312 Z "/>
</g>
</g>
<image id="source-32" x="0" y="0" width="0" height="0"/>
<mask id="mask-0">
<use xlink:href="#source-32"/>
</mask>
</defs>
<g fill="rgb(66.27451%, 64.313725%, 56.862745%)" fill-opacity="1">
<use xlink:href="#glyph-0-0" x="30" y="23.635742"/>
<use xlink:href="#glyph-0-1" x="33" y="23.635742"/>
<use xlink:href="#glyph-0-2" x="35" y="23.635742"/>
<use xlink:href="#glyph-0-3" x="37" y="23.635742"/>
<use xlink:href="#glyph-0-4" x="40" y="23.635742"/>
<use xlink:href="#glyph-0-5" x="42" y="23.635742"/>
<use xlink:href="#glyph-0-0" x="44" y="23.635742"/>
<use xlink:href="#glyph-0-3" x="47" y="23.635742"/>
<use xlink:href="#glyph-0-6" x="50" y="23.635742"/>
<use xlink:href="#glyph-0-7" x="51" y="23.635742"/>
<use xlink:href="#glyph-0-4" x="53" y="23.635742"/>
<use xlink:href="#glyph-0-8" x="55" y="23.635742"/>
<use xlink:href="#glyph-0-2" x="57" y="23.635742"/>
<use xlink:href="#glyph-0-3" x="59" y="23.635742"/>
</g>
</svg>
