<?xml version="1.0" encoding="UTF-8"?>
<svg xmlns="http://www.w3.org/2000/svg" xmlns:xlink="http://www.w3.org/1999/xlink" width="854" height="480" viewBox="0 0 854 480">
<defs>
<g>
<g id="glyph-0-0">
<path d="M 5.617188 -10.734375 C 5.804688 -10.734375 5.894531 -10.675781 5.894531 -10.5625 C 5.894531 -10.519531 5.878906 -10.484375 5.839844 -10.453125 C 5.804688 -10.421875 5.75 -10.394531 5.679688 -10.375 C 5.460938 -10.332031 5.234375 -10.25 5 -10.117188 C 4.765625 -9.988281 4.574219 -9.808594 4.417969 -9.574219 C 4.261719 -9.339844 4.183594 -9.042969 4.183594 -8.679688 C 4.183594 -8.554688 4.242188 -8.414062 4.363281 -8.261719 C 4.484375 -8.105469 4.625 -8.015625 4.792969 -7.996094 C 5.019531 -7.976562 5.199219 -7.90625 5.328125 -7.785156 C 5.457031 -7.667969 5.523438 -7.519531 5.523438 -7.34375 C 5.523438 -7.136719 5.4375 -6.964844 5.265625 -6.828125 C 5.09375 -6.695312 4.894531 -6.625 4.667969 -6.625 C 4.292969 -6.625 3.984375 -6.769531 3.742188 -7.054688 C 3.496094 -7.339844 3.375 -7.699219 3.375 -8.136719 C 3.375 -8.53125 3.453125 -8.886719 3.609375 -9.203125 C 3.765625 -9.519531 3.960938 -9.789062 4.199219 -10.019531 C 4.4375 -10.246094 4.683594 -10.421875 4.9375 -10.546875 C 5.191406 -10.671875 5.417969 -10.734375 5.617188 -10.734375 Z M 2.878906 -10.734375 C 3.066406 -10.734375 3.15625 -10.675781 3.15625 -10.5625 C 3.15625 -10.519531 3.140625 -10.484375 3.101562 -10.453125 C 3.066406 -10.421875 3.011719 -10.394531 2.941406 -10.375 C 2.722656 -10.332031 2.496094 -10.25 2.261719 -10.117188 C 2.03125 -9.988281 1.835938 -9.808594 1.679688 -9.574219 C 1.523438 -9.339844 1.445312 -9.042969 1.445312 -8.679688 C 1.445312 -8.554688 1.507812 -8.414062 1.625 -8.261719 C 1.746094 -8.105469 1.886719 -8.015625 2.054688 -7.996094 C 2.28125 -7.976562 2.460938 -7.90625 2.589844 -7.785156 C 2.71875 -7.667969 2.785156 -7.519531 2.785156 -7.34375 C 2.785156 -7.136719 2.699219 -6.964844 2.527344 -6.828125 C 2.355469 -6.695312 2.15625 -6.625 1.929688 -6.625 C 1.554688 -6.625 1.246094 -6.769531 1.003906 -7.054688 C 0.761719 -7.339844 0.636719 -7.699219 0.636719 -8.136719 C 0.636719 -8.53125 0.714844 -8.886719 0.871094 -9.203125 C 1.027344 -9.519531 1.222656 -9.789062 1.460938 -10.019531 C 1.699219 -10.246094 1.945312 -10.421875 2.199219 -10.546875 C 2.453125 -10.671875 2.679688 -10.734375 2.878906 -10.734375 Z "/>
</g>
</g>
</defs>
<g fill="rgb(66.27451%, 64.313725%, 56.862745%)" fill-opacity="1">
<use xlink:href="#glyph-0-0" x="30" y="35.665039"/>
</g>
</svg>
