<?xml version="1.0" encoding="UTF-8"?>
<svg xmlns="http://www.w3.org/2000/svg" xmlns:xlink="http://www.w3.org/1999/xlink" width="3840" height="2160" viewBox="0 0 3840 2160">
<defs>
<g>
<g id="glyph-0-0">
<path d="M 2.503906 0.09375 C 2.195312 0.09375 1.902344 0.0429688 1.625 -0.0625 C 1.347656 -0.167969 1.101562 -0.316406 0.882812 -0.511719 C 0.667969 -0.703125 0.5 -0.933594 0.375 -1.203125 C 0.253906 -1.472656 0.191406 -1.769531 0.191406 -2.101562 C 0.191406 -2.402344 0.242188 -2.691406 0.34375 -2.96875 C 0.445312 -3.246094 0.59375 -3.496094 0.796875 -3.714844 C 0.996094 -3.933594 1.242188 -4.105469 1.539062 -4.234375 C 1.835938 -4.363281 2.175781 -4.425781 2.5625 -4.425781 C 2.871094 -4.425781 3.164062 -4.375 3.441406 -4.269531 C 3.71875 -4.164062 3.964844 -4.015625 4.179688 -3.824219 C 4.394531 -3.628906 4.566406 -3.398438 4.6875 -3.128906 C 4.8125 -2.859375 4.875 -2.5625 4.875 -2.234375 C 4.875 -1.9375 4.824219 -1.648438 4.722656 -1.367188 C 4.621094 -1.085938 4.46875 -0.835938 4.269531 -0.621094 C 4.070312 -0.402344 3.820312 -0.230469 3.527344 -0.101562 C 3.230469 0.0273438 2.890625 0.09375 2.503906 0.09375 Z M 2.617188 -0.210938 C 2.875 -0.210938 3.085938 -0.28125 3.257812 -0.425781 C 3.425781 -0.566406 3.554688 -0.765625 3.640625 -1.019531 C 3.726562 -1.273438 3.769531 -1.5625 3.769531 -1.890625 C 3.769531 -2.164062 3.742188 -2.433594 3.691406 -2.695312 C 3.636719 -2.960938 3.554688 -3.199219 3.449219 -3.414062 C 3.339844 -3.628906 3.199219 -3.796875 3.035156 -3.925781 C 2.867188 -4.050781 2.667969 -4.113281 2.433594 -4.113281 C 2.183594 -4.113281 1.972656 -4.042969 1.804688 -3.902344 C 1.632812 -3.757812 1.507812 -3.5625 1.421875 -3.3125 C 1.335938 -3.0625 1.296875 -2.773438 1.296875 -2.445312 C 1.296875 -2.171875 1.320312 -1.902344 1.375 -1.636719 C 1.425781 -1.371094 1.507812 -1.132812 1.613281 -0.917969 C 1.722656 -0.703125 1.859375 -0.535156 2.023438 -0.40625 C 2.191406 -0.277344 2.390625 -0.210938 2.617188 -0.210938 Z "/>
</g>
<g id="glyph-0-1">
<path d="M 0.242188 0.0234375 C 0.210938 0.0234375 0.179688 0.015625 0.152344 -0.00390625 C 0.125 -0.0195312 0.109375 -0.0429688 0.109375 -0.0742188 C 0.109375 -0.144531 0.160156 -0.191406 0.253906 -0.214844 C 0.421875 -0.25 0.539062 -0.296875 0.605469 -0.351562 C 0.671875 -0.40625 0.703125 -0.507812 0.703125 -0.648438 L 0.703125 -3.640625 C 0.703125 -3.792969 0.675781 -3.902344 0.621094 -3.96875 C 0.566406 -4.039062 0.460938 -4.089844 0.300781 -4.125 C 0.242188 -4.136719 0.203125 -4.15625 0.179688 -4.183594 C 0.15625 -4.210938 0.148438 -4.238281 0.148438 -4.265625 C 0.148438 -4.292969 0.160156 -4.320312 0.1875 -4.335938 C 0.214844 -4.355469 0.246094 -4.363281 0.292969 -4.363281 C 0.394531 -4.363281 0.496094 -4.363281 0.601562 -4.359375 C 0.707031 -4.355469 0.8125 -4.351562 0.910156 -4.34375 C 1.011719 -4.339844 1.105469 -4.335938 1.195312 -4.335938 C 1.300781 -4.335938 1.394531 -4.339844 1.476562 -4.351562 C 1.5625 -4.363281 1.652344 -4.371094 1.75 -4.382812 C 1.847656 -4.394531 1.96875 -4.398438 2.117188 -4.398438 C 2.65625 -4.398438 3.085938 -4.285156 3.402344 -4.054688 C 3.71875 -3.824219 3.878906 -3.511719 3.878906 -3.113281 C 3.878906 -2.835938 3.820312 -2.578125 3.703125 -2.339844 C 3.585938 -2.105469 3.40625 -1.914062 3.167969 -1.773438 C 2.929688 -1.628906 2.628906 -1.558594 2.265625 -1.558594 C 2.148438 -1.558594 2.0625 -1.574219 2 -1.609375 C 1.941406 -1.644531 1.910156 -1.683594 1.910156 -1.734375 C 1.910156 -1.765625 1.925781 -1.789062 1.957031 -1.808594 C 1.988281 -1.828125 2.011719 -1.835938 2.035156 -1.835938 C 2.082031 -1.835938 2.125 -1.832031 2.160156 -1.820312 C 2.195312 -1.8125 2.246094 -1.808594 2.308594 -1.808594 C 2.496094 -1.808594 2.636719 -1.910156 2.730469 -2.121094 C 2.828125 -2.332031 2.875 -2.605469 2.875 -2.945312 C 2.875 -3.355469 2.808594 -3.652344 2.671875 -3.835938 C 2.539062 -4.015625 2.351562 -4.105469 2.117188 -4.105469 C 1.992188 -4.105469 1.898438 -4.078125 1.832031 -4.023438 C 1.765625 -3.96875 1.734375 -3.882812 1.734375 -3.765625 L 1.726562 -0.667969 C 1.726562 -0.527344 1.765625 -0.425781 1.839844 -0.363281 C 1.917969 -0.300781 2.046875 -0.253906 2.234375 -0.214844 C 2.28125 -0.203125 2.316406 -0.191406 2.339844 -0.171875 C 2.367188 -0.152344 2.378906 -0.121094 2.378906 -0.078125 C 2.378906 -0.046875 2.367188 -0.0234375 2.347656 -0.0078125 C 2.324219 0.0078125 2.296875 0.015625 2.257812 0.015625 C 2.160156 0.015625 2.042969 0.015625 1.917969 0.0078125 C 1.789062 0.00390625 1.664062 0 1.539062 -0.0078125 C 1.414062 -0.0117188 1.308594 -0.0117188 1.21875 -0.0117188 C 1.125 -0.0117188 1.023438 -0.0117188 0.914062 -0.0078125 C 0.800781 0 0.6875 0.00390625 0.570312 0.0117188 C 0.453125 0.0195312 0.347656 0.0234375 0.242188 0.0234375 Z "/>
</g>
<g id="glyph-0-2">
<path d="M 0.269531 0.0351562 C 0.226562 0.0351562 0.195312 0.0234375 0.167969 0.00390625 C 0.144531 -0.015625 0.132812 -0.0390625 0.132812 -0.0664062 C 0.132812 -0.132812 0.179688 -0.175781 0.28125 -0.203125 C 0.429688 -0.246094 0.539062 -0.292969 0.601562 -0.347656 C 0.664062 -0.398438 0.699219 -0.496094 0.699219 -0.636719 L 0.699219 -3.671875 C 0.699219 -3.816406 0.667969 -3.917969 0.613281 -3.980469 C 0.554688 -4.042969 0.445312 -4.089844 0.289062 -4.125 C 0.230469 -4.136719 0.191406 -4.15625 0.167969 -4.183594 C 0.144531 -4.210938 0.136719 -4.238281 0.136719 -4.265625 C 0.136719 -4.292969 0.148438 -4.320312 0.175781 -4.335938 C 0.203125 -4.355469 0.234375 -4.363281 0.277344 -4.363281 C 0.390625 -4.363281 0.503906 -4.363281 0.617188 -4.359375 C 0.734375 -4.355469 0.847656 -4.347656 0.960938 -4.34375 C 1.070312 -4.335938 1.175781 -4.332031 1.277344 -4.332031 C 1.507812 -4.332031 1.753906 -4.335938 2.019531 -4.339844 C 2.28125 -4.34375 2.511719 -4.347656 2.71875 -4.351562 C 2.859375 -4.351562 2.980469 -4.359375 3.074219 -4.375 C 3.167969 -4.390625 3.222656 -4.398438 3.238281 -4.398438 C 3.273438 -4.398438 3.308594 -4.386719 3.34375 -4.371094 C 3.378906 -4.351562 3.398438 -4.320312 3.402344 -4.273438 C 3.421875 -4.113281 3.445312 -3.960938 3.472656 -3.808594 C 3.5 -3.65625 3.515625 -3.523438 3.515625 -3.410156 C 3.515625 -3.367188 3.503906 -3.335938 3.488281 -3.3125 C 3.46875 -3.292969 3.449219 -3.28125 3.425781 -3.28125 C 3.402344 -3.28125 3.382812 -3.289062 3.359375 -3.308594 C 3.335938 -3.324219 3.316406 -3.351562 3.296875 -3.386719 C 3.253906 -3.5 3.214844 -3.59375 3.179688 -3.675781 C 3.144531 -3.753906 3.105469 -3.816406 3.058594 -3.863281 C 3.007812 -3.917969 2.945312 -3.964844 2.867188 -4.007812 C 2.792969 -4.050781 2.695312 -4.070312 2.578125 -4.070312 L 2.078125 -4.070312 C 1.980469 -4.070312 1.898438 -4.046875 1.828125 -3.996094 C 1.757812 -3.945312 1.722656 -3.871094 1.722656 -3.78125 L 1.722656 -2.519531 C 1.722656 -2.464844 1.738281 -2.425781 1.769531 -2.402344 C 1.796875 -2.375 1.835938 -2.363281 1.886719 -2.363281 L 2.46875 -2.363281 C 2.585938 -2.363281 2.671875 -2.402344 2.722656 -2.480469 C 2.773438 -2.558594 2.820312 -2.652344 2.855469 -2.761719 C 2.890625 -2.84375 2.9375 -2.886719 2.992188 -2.886719 C 3.015625 -2.886719 3.035156 -2.875 3.054688 -2.847656 C 3.070312 -2.824219 3.078125 -2.789062 3.074219 -2.742188 C 3.070312 -2.6875 3.066406 -2.628906 3.058594 -2.566406 C 3.054688 -2.503906 3.050781 -2.441406 3.046875 -2.382812 C 3.042969 -2.320312 3.042969 -2.261719 3.042969 -2.203125 C 3.042969 -2.148438 3.042969 -2.089844 3.046875 -2.027344 C 3.050781 -1.964844 3.050781 -1.902344 3.054688 -1.839844 C 3.058594 -1.777344 3.0625 -1.714844 3.066406 -1.65625 C 3.074219 -1.597656 3.070312 -1.550781 3.058594 -1.523438 C 3.042969 -1.496094 3.027344 -1.484375 3.003906 -1.484375 C 2.929688 -1.484375 2.875 -1.539062 2.84375 -1.652344 C 2.804688 -1.789062 2.761719 -1.890625 2.710938 -1.960938 C 2.660156 -2.03125 2.59375 -2.066406 2.507812 -2.066406 L 1.882812 -2.066406 C 1.828125 -2.066406 1.789062 -2.054688 1.761719 -2.03125 C 1.734375 -2.003906 1.722656 -1.964844 1.722656 -1.910156 L 1.722656 -0.648438 C 1.722656 -0.515625 1.75 -0.421875 1.808594 -0.367188 C 1.863281 -0.3125 1.953125 -0.289062 2.070312 -0.289062 L 2.644531 -0.289062 C 2.742188 -0.289062 2.835938 -0.300781 2.925781 -0.324219 C 3.015625 -0.347656 3.089844 -0.382812 3.152344 -0.433594 C 3.226562 -0.492188 3.296875 -0.570312 3.359375 -0.664062 C 3.421875 -0.761719 3.480469 -0.859375 3.535156 -0.964844 C 3.550781 -1 3.570312 -1.019531 3.589844 -1.03125 C 3.609375 -1.042969 3.632812 -1.046875 3.65625 -1.046875 C 3.683594 -1.042969 3.699219 -1.03125 3.710938 -1.003906 C 3.71875 -0.976562 3.726562 -0.949219 3.726562 -0.917969 C 3.726562 -0.847656 3.714844 -0.761719 3.691406 -0.667969 C 3.667969 -0.574219 3.640625 -0.472656 3.609375 -0.367188 C 3.574219 -0.261719 3.542969 -0.160156 3.511719 -0.0585938 C 3.503906 -0.0273438 3.484375 -0.00390625 3.457031 0.0078125 C 3.429688 0.0195312 3.398438 0.0273438 3.363281 0.0273438 C 3.308594 0.0273438 3.203125 0.0273438 3.042969 0.0234375 C 2.886719 0.0195312 2.703125 0.0195312 2.488281 0.0117188 C 2.273438 0.0078125 2.054688 0.00390625 1.828125 0.00390625 C 1.601562 0 1.390625 0 1.195312 0 C 1.105469 0 1.007812 0 0.898438 0.0078125 C 0.792969 0.0117188 0.683594 0.015625 0.574219 0.0234375 C 0.464844 0.03125 0.363281 0.0351562 0.269531 0.0351562 Z "/>
</g>
<g id="glyph-0-3">
<path d="M 4.300781 0.140625 C 4.074219 0.140625 3.882812 0.113281 3.726562 0.0585938 C 3.570312 0.00390625 3.4375 -0.0703125 3.328125 -0.160156 C 3.222656 -0.253906 3.125 -0.355469 3.039062 -0.472656 C 2.941406 -0.601562 2.847656 -0.730469 2.757812 -0.859375 C 2.667969 -0.988281 2.578125 -1.128906 2.488281 -1.28125 C 2.398438 -1.433594 2.308594 -1.605469 2.210938 -1.796875 C 2.160156 -1.898438 2.101562 -1.96875 2.027344 -2.007812 C 1.988281 -2.03125 1.945312 -2.050781 1.90625 -2.058594 C 1.867188 -2.066406 1.832031 -2.070312 1.800781 -2.074219 C 1.777344 -2.074219 1.757812 -2.0625 1.746094 -2.035156 C 1.734375 -2.011719 1.726562 -1.980469 1.726562 -1.941406 L 1.726562 -0.667969 C 1.726562 -0.527344 1.765625 -0.429688 1.839844 -0.367188 C 1.917969 -0.304688 2.046875 -0.253906 2.234375 -0.214844 C 2.28125 -0.203125 2.316406 -0.191406 2.339844 -0.171875 C 2.367188 -0.152344 2.378906 -0.121094 2.378906 -0.078125 C 2.378906 -0.046875 2.367188 -0.0234375 2.347656 -0.0078125 C 2.324219 0.0078125 2.296875 0.015625 2.257812 0.015625 C 2.160156 0.015625 2.042969 0.015625 1.917969 0.0078125 C 1.789062 0.00390625 1.664062 0 1.539062 -0.0078125 C 1.414062 -0.0117188 1.308594 -0.0117188 1.21875 -0.0117188 C 1.125 -0.0117188 1.023438 -0.0117188 0.914062 -0.0078125 C 0.800781 0 0.6875 0.00390625 0.570312 0.0117188 C 0.453125 0.0195312 0.347656 0.0234375 0.242188 0.0234375 C 0.210938 0.0234375 0.179688 0.015625 0.152344 -0.00390625 C 0.125 -0.0195312 0.109375 -0.0429688 0.109375 -0.0742188 C 0.109375 -0.144531 0.160156 -0.191406 0.253906 -0.214844 C 0.421875 -0.25 0.539062 -0.296875 0.605469 -0.351562 C 0.671875 -0.40625 0.703125 -0.507812 0.703125 -0.648438 L 0.703125 -3.644531 C 0.703125 -3.753906 0.691406 -3.839844 0.671875 -3.902344 C 0.648438 -3.960938 0.609375 -4.007812 0.554688 -4.042969 C 0.496094 -4.078125 0.414062 -4.105469 0.300781 -4.125 C 0.242188 -4.136719 0.203125 -4.15625 0.179688 -4.183594 C 0.15625 -4.210938 0.148438 -4.238281 0.148438 -4.265625 C 0.148438 -4.292969 0.160156 -4.320312 0.1875 -4.335938 C 0.214844 -4.355469 0.246094 -4.363281 0.292969 -4.363281 C 0.433594 -4.363281 0.550781 -4.359375 0.640625 -4.355469 C 0.730469 -4.347656 0.816406 -4.339844 0.902344 -4.332031 C 0.984375 -4.324219 1.078125 -4.320312 1.191406 -4.320312 C 1.292969 -4.320312 1.382812 -4.324219 1.464844 -4.335938 C 1.542969 -4.34375 1.632812 -4.355469 1.730469 -4.367188 C 1.828125 -4.375 1.957031 -4.378906 2.117188 -4.378906 C 2.632812 -4.378906 3.035156 -4.292969 3.316406 -4.113281 C 3.597656 -3.9375 3.734375 -3.667969 3.734375 -3.308594 C 3.734375 -3.109375 3.691406 -2.941406 3.605469 -2.804688 C 3.519531 -2.667969 3.410156 -2.554688 3.277344 -2.46875 C 3.148438 -2.382812 3.015625 -2.320312 2.878906 -2.277344 C 2.859375 -2.273438 2.851562 -2.261719 2.855469 -2.242188 C 2.855469 -2.226562 2.863281 -2.210938 2.871094 -2.195312 C 3.007812 -1.996094 3.136719 -1.804688 3.265625 -1.625 C 3.390625 -1.441406 3.519531 -1.269531 3.652344 -1.113281 C 3.785156 -0.953125 3.925781 -0.808594 4.066406 -0.671875 C 4.214844 -0.53125 4.371094 -0.449219 4.527344 -0.425781 C 4.6875 -0.398438 4.84375 -0.386719 5 -0.386719 C 5.066406 -0.386719 5.097656 -0.347656 5.097656 -0.269531 C 5.097656 -0.167969 5.0625 -0.0898438 4.996094 -0.03125 C 4.925781 0.0273438 4.832031 0.0703125 4.710938 0.0976562 C 4.589844 0.125 4.453125 0.140625 4.300781 0.140625 Z M 1.984375 -2.285156 C 2.152344 -2.285156 2.289062 -2.324219 2.402344 -2.398438 C 2.511719 -2.472656 2.59375 -2.578125 2.652344 -2.707031 C 2.707031 -2.839844 2.738281 -2.988281 2.738281 -3.160156 C 2.738281 -3.367188 2.710938 -3.539062 2.660156 -3.675781 C 2.605469 -3.8125 2.527344 -3.914062 2.417969 -3.984375 C 2.3125 -4.054688 2.175781 -4.085938 2.007812 -4.085938 C 1.910156 -4.085938 1.839844 -4.046875 1.796875 -3.96875 C 1.753906 -3.890625 1.730469 -3.726562 1.730469 -3.472656 C 1.730469 -3.371094 1.730469 -3.246094 1.730469 -3.089844 C 1.730469 -2.933594 1.726562 -2.75 1.726562 -2.535156 C 1.726562 -2.441406 1.75 -2.378906 1.796875 -2.339844 C 1.84375 -2.304688 1.90625 -2.285156 1.984375 -2.285156 Z "/>
</g>
<g id="glyph-0-4">
<path d="M 0.148438 0.0351562 C 0.0976562 0.0351562 0.0546875 0.0273438 0.0195312 0.0117188 C -0.0117188 -0.00390625 -0.03125 -0.0351562 -0.03125 -0.0742188 C -0.03125 -0.117188 -0.015625 -0.148438 0.015625 -0.167969 C 0.046875 -0.191406 0.0859375 -0.207031 0.128906 -0.222656 C 0.261719 -0.257812 0.375 -0.3125 0.46875 -0.386719 C 0.566406 -0.460938 0.636719 -0.554688 0.6875 -0.664062 C 0.796875 -0.917969 0.902344 -1.164062 1 -1.40625 C 1.097656 -1.648438 1.195312 -1.886719 1.289062 -2.125 C 1.382812 -2.363281 1.476562 -2.605469 1.566406 -2.851562 C 1.660156 -3.097656 1.753906 -3.347656 1.847656 -3.601562 C 1.914062 -3.78125 1.953125 -3.910156 1.972656 -3.992188 C 1.988281 -4.074219 2.003906 -4.125 2.015625 -4.140625 C 2.097656 -4.160156 2.171875 -4.183594 2.238281 -4.199219 C 2.308594 -4.21875 2.386719 -4.246094 2.46875 -4.273438 C 2.546875 -4.304688 2.613281 -4.34375 2.667969 -4.390625 C 2.722656 -4.4375 2.765625 -4.476562 2.792969 -4.507812 C 2.8125 -4.519531 2.832031 -4.527344 2.847656 -4.53125 C 2.867188 -4.535156 2.882812 -4.519531 2.898438 -4.488281 C 2.914062 -4.460938 2.925781 -4.433594 2.9375 -4.402344 C 2.949219 -4.375 2.957031 -4.34375 2.964844 -4.308594 C 3.058594 -4.007812 3.152344 -3.703125 3.253906 -3.398438 C 3.351562 -3.089844 3.453125 -2.78125 3.550781 -2.472656 C 3.652344 -2.164062 3.75 -1.859375 3.847656 -1.5625 C 3.945312 -1.265625 4.039062 -0.972656 4.128906 -0.6875 C 4.160156 -0.597656 4.203125 -0.523438 4.257812 -0.460938 C 4.3125 -0.398438 4.375 -0.351562 4.449219 -0.3125 C 4.519531 -0.277344 4.601562 -0.246094 4.6875 -0.21875 C 4.734375 -0.207031 4.773438 -0.191406 4.804688 -0.167969 C 4.835938 -0.148438 4.847656 -0.117188 4.847656 -0.078125 C 4.847656 -0.046875 4.835938 -0.0234375 4.808594 -0.0078125 C 4.78125 0.0078125 4.75 0.015625 4.710938 0.015625 C 4.621094 0.015625 4.515625 0.015625 4.382812 0.0078125 C 4.253906 0.00390625 4.121094 0 3.988281 -0.00390625 C 3.855469 -0.0078125 3.738281 -0.0117188 3.636719 -0.0117188 C 3.546875 -0.0117188 3.441406 -0.0117188 3.320312 -0.0078125 C 3.199219 -0.00390625 3.078125 0 2.953125 0.0078125 C 2.832031 0.0117188 2.726562 0.015625 2.636719 0.015625 C 2.597656 0.015625 2.5625 0.0078125 2.53125 -0.0078125 C 2.5 -0.0273438 2.484375 -0.0507812 2.484375 -0.078125 C 2.484375 -0.117188 2.5 -0.148438 2.535156 -0.171875 C 2.566406 -0.195312 2.601562 -0.214844 2.644531 -0.222656 C 2.808594 -0.257812 2.929688 -0.300781 3.007812 -0.359375 C 3.085938 -0.414062 3.109375 -0.503906 3.078125 -0.621094 C 3.0625 -0.707031 3.039062 -0.792969 3.015625 -0.886719 C 2.988281 -0.980469 2.964844 -1.074219 2.9375 -1.171875 C 2.914062 -1.269531 2.886719 -1.359375 2.863281 -1.449219 C 2.855469 -1.484375 2.84375 -1.511719 2.828125 -1.53125 C 2.8125 -1.546875 2.785156 -1.554688 2.742188 -1.554688 L 1.566406 -1.554688 C 1.535156 -1.554688 1.507812 -1.546875 1.492188 -1.527344 C 1.476562 -1.507812 1.460938 -1.480469 1.453125 -1.441406 C 1.433594 -1.378906 1.414062 -1.316406 1.394531 -1.253906 C 1.371094 -1.191406 1.351562 -1.128906 1.332031 -1.066406 C 1.3125 -1.003906 1.289062 -0.941406 1.273438 -0.878906 C 1.253906 -0.820312 1.238281 -0.757812 1.222656 -0.699219 C 1.191406 -0.566406 1.203125 -0.464844 1.257812 -0.394531 C 1.316406 -0.324219 1.441406 -0.265625 1.632812 -0.222656 C 1.738281 -0.195312 1.792969 -0.148438 1.792969 -0.078125 C 1.792969 -0.046875 1.777344 -0.0234375 1.753906 -0.0117188 C 1.730469 0.00390625 1.691406 0.0117188 1.640625 0.0117188 C 1.511719 0.0117188 1.390625 0.0078125 1.277344 0.00390625 C 1.167969 -0.00390625 1.046875 -0.0078125 0.914062 -0.0078125 C 0.78125 -0.0078125 0.65625 0 0.535156 0.0117188 C 0.414062 0.0273438 0.285156 0.0351562 0.148438 0.0351562 Z M 1.75 -1.914062 L 2.621094 -1.914062 C 2.6875 -1.914062 2.71875 -1.925781 2.71875 -1.957031 C 2.71875 -1.972656 2.71875 -1.984375 2.714844 -1.992188 C 2.714844 -2 2.710938 -2.011719 2.707031 -2.027344 L 2.261719 -3.53125 C 2.246094 -3.582031 2.230469 -3.605469 2.21875 -3.605469 C 2.210938 -3.605469 2.195312 -3.582031 2.175781 -3.53125 L 1.644531 -2.027344 C 1.636719 -2.007812 1.632812 -1.992188 1.632812 -1.976562 C 1.632812 -1.953125 1.644531 -1.9375 1.667969 -1.929688 C 1.695312 -1.917969 1.722656 -1.914062 1.75 -1.914062 Z "/>
</g>
<g id="glyph-0-5">
<path d="M 1.371094 0.0234375 C 1.339844 0.0234375 1.308594 0.015625 1.273438 -0.00390625 C 1.238281 -0.0195312 1.222656 -0.0429688 1.222656 -0.0742188 C 1.222656 -0.113281 1.238281 -0.140625 1.269531 -0.164062 C 1.296875 -0.1875 1.335938 -0.203125 1.382812 -0.214844 C 1.550781 -0.25 1.671875 -0.296875 1.75 -0.351562 C 1.824219 -0.410156 1.863281 -0.511719 1.863281 -0.652344 L 1.863281 -3.402344 C 1.863281 -3.578125 1.859375 -3.707031 1.851562 -3.792969 C 1.84375 -3.875 1.832031 -3.929688 1.816406 -3.957031 C 1.800781 -3.984375 1.78125 -4.003906 1.757812 -4.011719 C 1.71875 -4.03125 1.667969 -4.046875 1.605469 -4.050781 C 1.539062 -4.054688 1.488281 -4.054688 1.449219 -4.054688 L 1.296875 -4.054688 C 1.160156 -4.054688 1.023438 -4.019531 0.898438 -3.953125 C 0.769531 -3.882812 0.667969 -3.796875 0.59375 -3.691406 C 0.574219 -3.664062 0.539062 -3.621094 0.5 -3.566406 C 0.457031 -3.511719 0.414062 -3.460938 0.367188 -3.417969 C 0.320312 -3.378906 0.273438 -3.355469 0.226562 -3.355469 C 0.191406 -3.355469 0.164062 -3.367188 0.152344 -3.390625 C 0.136719 -3.414062 0.128906 -3.441406 0.128906 -3.46875 C 0.128906 -3.527344 0.144531 -3.582031 0.175781 -3.640625 C 0.257812 -3.808594 0.320312 -3.949219 0.359375 -4.070312 C 0.398438 -4.191406 0.425781 -4.332031 0.441406 -4.488281 C 0.449219 -4.554688 0.46875 -4.597656 0.5 -4.625 C 0.53125 -4.648438 0.566406 -4.660156 0.605469 -4.660156 C 0.636719 -4.660156 0.671875 -4.632812 0.707031 -4.574219 C 0.742188 -4.515625 0.78125 -4.472656 0.820312 -4.433594 C 0.863281 -4.398438 0.941406 -4.371094 1.042969 -4.351562 C 1.148438 -4.332031 1.234375 -4.324219 1.296875 -4.324219 L 3.808594 -4.328125 C 3.921875 -4.328125 4.015625 -4.339844 4.09375 -4.363281 C 4.171875 -4.382812 4.230469 -4.402344 4.265625 -4.425781 C 4.339844 -4.464844 4.394531 -4.511719 4.4375 -4.558594 C 4.480469 -4.609375 4.53125 -4.632812 4.585938 -4.632812 C 4.613281 -4.632812 4.632812 -4.625 4.644531 -4.601562 C 4.65625 -4.582031 4.660156 -4.554688 4.660156 -4.519531 C 4.660156 -4.5 4.660156 -4.476562 4.65625 -4.453125 C 4.652344 -4.425781 4.648438 -4.402344 4.644531 -4.382812 C 4.625 -4.292969 4.605469 -4.210938 4.582031 -4.132812 C 4.558594 -4.054688 4.542969 -3.984375 4.527344 -3.914062 C 4.515625 -3.84375 4.507812 -3.769531 4.507812 -3.691406 L 4.507812 -3.5625 C 4.507812 -3.492188 4.5 -3.433594 4.484375 -3.386719 C 4.46875 -3.34375 4.4375 -3.324219 4.394531 -3.324219 C 4.351562 -3.324219 4.320312 -3.34375 4.292969 -3.386719 C 4.265625 -3.425781 4.238281 -3.492188 4.207031 -3.585938 C 4.15625 -3.75 4.085938 -3.867188 3.988281 -3.941406 C 3.890625 -4.019531 3.746094 -4.054688 3.550781 -4.054688 L 3.207031 -4.054688 C 3.128906 -4.054688 3.070312 -4.039062 3.023438 -4.003906 C 2.976562 -3.96875 2.941406 -3.902344 2.921875 -3.800781 C 2.898438 -3.699219 2.890625 -3.546875 2.890625 -3.34375 L 2.890625 -0.65625 C 2.890625 -0.527344 2.925781 -0.433594 3 -0.371094 C 3.074219 -0.3125 3.195312 -0.261719 3.367188 -0.214844 C 3.414062 -0.203125 3.453125 -0.1875 3.480469 -0.167969 C 3.511719 -0.148438 3.527344 -0.121094 3.527344 -0.078125 C 3.527344 -0.046875 3.511719 -0.0234375 3.488281 -0.0078125 C 3.460938 0.0078125 3.425781 0.015625 3.386719 0.015625 C 3.289062 0.015625 3.179688 0.015625 3.054688 0.0078125 C 2.933594 0.00390625 2.8125 0 2.691406 -0.00390625 C 2.570312 -0.0078125 2.464844 -0.0117188 2.371094 -0.0117188 C 2.28125 -0.0117188 2.175781 -0.0078125 2.058594 -0.00390625 C 1.941406 0 1.824219 0.00390625 1.703125 0.0117188 C 1.585938 0.0195312 1.472656 0.0234375 1.371094 0.0234375 Z "/>
</g>
</g>
</defs>
<g fill="rgb(85.098039%, 46.666667%, 34.117647%)" fill-opacity="1">
<use xlink:href="#glyph-0-0" x="30" y="26.713867"/>
<use xlink:href="#glyph-0-1" x="35" y="26.713867"/>
<use xlink:href="#glyph-0-2" x="39" y="26.713867"/>
<use xlink:href="#glyph-0-3" x="43" y="26.713867"/>
<use xlink:href="#glyph-0-4" x="48" y="26.713867"/>
<use xlink:href="#glyph-0-5" x="52" y="26.713867"/>
<use xlink:href="#glyph-0-0" x="57" y="26.713867"/>
<use xlink:href="#glyph-0-3" x="62" y="26.713867"/>
</g>
</svg>
