<?xml version="1.0" encoding="UTF-8"?>
<svg xmlns="http://www.w3.org/2000/svg" xmlns:xlink="http://www.w3.org/1999/xlink" width="3840" height="2160" viewBox="0 0 3840 2160">
<defs>
<g>
<g id="glyph-0-0">
<path d="M 3.753906 0.140625 C 3.292969 0.140625 2.851562 0.0625 2.4375 -0.09375 C 2.019531 -0.25 1.648438 -0.476562 1.328125 -0.765625 C 1.003906 -1.054688 0.75 -1.402344 0.5625 -1.804688 C 0.378906 -2.207031 0.285156 -2.65625 0.285156 -3.148438 C 0.285156 -3.601562 0.363281 -4.039062 0.515625 -4.453125 C 0.667969 -4.871094 0.890625 -5.242188 1.191406 -5.570312 C 1.492188 -5.898438 1.863281 -6.15625 2.308594 -6.351562 C 2.75 -6.542969 3.261719 -6.640625 3.84375 -6.640625 C 4.304688 -6.640625 4.746094 -6.5625 5.160156 -6.40625 C 5.578125 -6.25 5.945312 -6.023438 6.269531 -5.734375 C 6.59375 -5.445312 6.847656 -5.097656 7.03125 -4.695312 C 7.21875 -4.292969 7.3125 -3.84375 7.3125 -3.351562 C 7.3125 -2.902344 7.234375 -2.46875 7.082031 -2.050781 C 6.929688 -1.628906 6.703125 -1.257812 6.40625 -0.929688 C 6.105469 -0.601562 5.730469 -0.34375 5.289062 -0.148438 C 4.847656 0.0429688 4.335938 0.140625 3.753906 0.140625 Z M 3.929688 -0.316406 C 4.3125 -0.316406 4.628906 -0.425781 4.882812 -0.636719 C 5.140625 -0.851562 5.332031 -1.148438 5.460938 -1.527344 C 5.589844 -1.90625 5.652344 -2.34375 5.652344 -2.835938 C 5.652344 -3.246094 5.613281 -3.648438 5.535156 -4.046875 C 5.457031 -4.441406 5.335938 -4.800781 5.171875 -5.121094 C 5.007812 -5.441406 4.800781 -5.695312 4.550781 -5.886719 C 4.300781 -6.074219 4 -6.171875 3.652344 -6.171875 C 3.277344 -6.171875 2.960938 -6.0625 2.707031 -5.851562 C 2.453125 -5.636719 2.261719 -5.34375 2.132812 -4.96875 C 2.007812 -4.59375 1.941406 -4.160156 1.941406 -3.667969 C 1.941406 -3.253906 1.980469 -2.851562 2.0625 -2.453125 C 2.140625 -2.058594 2.257812 -1.699219 2.421875 -1.378906 C 2.582031 -1.058594 2.785156 -0.800781 3.039062 -0.605469 C 3.289062 -0.414062 3.585938 -0.316406 3.929688 -0.316406 Z "/>
</g>
<g id="glyph-0-1">
<path d="M 0.367188 0.0351562 C 0.316406 0.0351562 0.273438 0.0195312 0.230469 -0.00390625 C 0.1875 -0.0273438 0.167969 -0.0625 0.167969 -0.109375 C 0.167969 -0.214844 0.238281 -0.289062 0.382812 -0.320312 C 0.636719 -0.375 0.808594 -0.441406 0.90625 -0.527344 C 1.003906 -0.613281 1.054688 -0.761719 1.054688 -0.976562 L 1.054688 -5.457031 C 1.054688 -5.6875 1.011719 -5.851562 0.929688 -5.957031 C 0.847656 -6.058594 0.6875 -6.136719 0.453125 -6.1875 C 0.367188 -6.207031 0.304688 -6.238281 0.273438 -6.273438 C 0.238281 -6.3125 0.21875 -6.355469 0.21875 -6.394531 C 0.21875 -6.441406 0.242188 -6.476562 0.28125 -6.503906 C 0.320312 -6.53125 0.371094 -6.546875 0.4375 -6.546875 C 0.589844 -6.546875 0.746094 -6.542969 0.902344 -6.539062 C 1.0625 -6.53125 1.214844 -6.527344 1.367188 -6.515625 C 1.519531 -6.507812 1.660156 -6.503906 1.792969 -6.503906 C 1.949219 -6.503906 2.089844 -6.511719 2.214844 -6.527344 C 2.339844 -6.542969 2.476562 -6.558594 2.625 -6.574219 C 2.773438 -6.589844 2.957031 -6.597656 3.175781 -6.597656 C 3.984375 -6.597656 4.625 -6.425781 5.105469 -6.082031 C 5.582031 -5.738281 5.820312 -5.265625 5.820312 -4.667969 C 5.820312 -4.25 5.730469 -3.863281 5.554688 -3.511719 C 5.378906 -3.15625 5.113281 -2.871094 4.753906 -2.65625 C 4.398438 -2.441406 3.945312 -2.335938 3.398438 -2.335938 C 3.226562 -2.335938 3.09375 -2.359375 3.003906 -2.414062 C 2.914062 -2.464844 2.867188 -2.527344 2.867188 -2.597656 C 2.867188 -2.648438 2.890625 -2.683594 2.933594 -2.714844 C 2.980469 -2.742188 3.019531 -2.753906 3.050781 -2.753906 C 3.121094 -2.753906 3.1875 -2.746094 3.238281 -2.734375 C 3.292969 -2.71875 3.367188 -2.710938 3.460938 -2.710938 C 3.742188 -2.710938 3.953125 -2.867188 4.097656 -3.183594 C 4.242188 -3.496094 4.3125 -3.910156 4.3125 -4.417969 C 4.3125 -5.035156 4.210938 -5.476562 4.007812 -5.75 C 3.808594 -6.023438 3.53125 -6.160156 3.175781 -6.160156 C 2.988281 -6.160156 2.84375 -6.121094 2.746094 -6.035156 C 2.648438 -5.953125 2.601562 -5.824219 2.601562 -5.652344 L 2.59375 -1.003906 C 2.59375 -0.789062 2.648438 -0.636719 2.761719 -0.546875 C 2.875 -0.453125 3.074219 -0.378906 3.351562 -0.320312 C 3.421875 -0.308594 3.476562 -0.285156 3.511719 -0.257812 C 3.546875 -0.226562 3.566406 -0.179688 3.566406 -0.117188 C 3.566406 -0.0703125 3.550781 -0.0351562 3.519531 -0.0117188 C 3.488281 0.0117188 3.441406 0.0273438 3.382812 0.0273438 C 3.238281 0.0273438 3.066406 0.0234375 2.875 0.015625 C 2.683594 0.0078125 2.492188 0 2.308594 -0.0078125 C 2.121094 -0.015625 1.960938 -0.0195312 1.828125 -0.0195312 C 1.691406 -0.0195312 1.535156 -0.015625 1.367188 -0.0078125 C 1.199219 0 1.03125 0.0078125 0.855469 0.0195312 C 0.683594 0.0273438 0.519531 0.0351562 0.367188 0.0351562 Z "/>
</g>
<g id="glyph-0-2">
<path d="M 0.40625 0.0507812 C 0.339844 0.0507812 0.289062 0.0351562 0.253906 0.00390625 C 0.214844 -0.0273438 0.199219 -0.0625 0.199219 -0.101562 C 0.199219 -0.199219 0.273438 -0.265625 0.421875 -0.304688 C 0.648438 -0.367188 0.808594 -0.441406 0.902344 -0.519531 C 1 -0.597656 1.046875 -0.746094 1.046875 -0.957031 L 1.046875 -5.507812 C 1.046875 -5.726562 1.003906 -5.878906 0.917969 -5.972656 C 0.832031 -6.0625 0.671875 -6.136719 0.433594 -6.1875 C 0.347656 -6.207031 0.289062 -6.238281 0.253906 -6.273438 C 0.21875 -6.3125 0.203125 -6.355469 0.203125 -6.394531 C 0.203125 -6.441406 0.222656 -6.476562 0.261719 -6.503906 C 0.300781 -6.53125 0.355469 -6.546875 0.417969 -6.546875 C 0.585938 -6.546875 0.753906 -6.542969 0.929688 -6.535156 C 1.101562 -6.53125 1.273438 -6.523438 1.441406 -6.511719 C 1.609375 -6.503906 1.765625 -6.5 1.917969 -6.5 C 2.261719 -6.5 2.632812 -6.503906 3.027344 -6.507812 C 3.421875 -6.515625 3.769531 -6.519531 4.074219 -6.527344 C 4.289062 -6.527344 4.46875 -6.539062 4.609375 -6.5625 C 4.75 -6.585938 4.832031 -6.59375 4.859375 -6.59375 C 4.910156 -6.59375 4.960938 -6.582031 5.015625 -6.554688 C 5.070312 -6.527344 5.097656 -6.480469 5.105469 -6.40625 C 5.132812 -6.171875 5.167969 -5.941406 5.210938 -5.710938 C 5.25 -5.484375 5.269531 -5.285156 5.269531 -5.113281 C 5.269531 -5.046875 5.257812 -5 5.230469 -4.96875 C 5.203125 -4.9375 5.171875 -4.921875 5.140625 -4.921875 C 5.105469 -4.921875 5.070312 -4.9375 5.035156 -4.960938 C 5 -4.984375 4.972656 -5.027344 4.949219 -5.082031 C 4.882812 -5.25 4.820312 -5.394531 4.769531 -5.511719 C 4.71875 -5.632812 4.65625 -5.726562 4.589844 -5.796875 C 4.511719 -5.875 4.417969 -5.945312 4.304688 -6.011719 C 4.191406 -6.074219 4.042969 -6.105469 3.867188 -6.105469 L 3.117188 -6.105469 C 2.96875 -6.105469 2.84375 -6.066406 2.742188 -5.992188 C 2.636719 -5.914062 2.585938 -5.808594 2.585938 -5.671875 L 2.585938 -3.78125 C 2.585938 -3.699219 2.605469 -3.640625 2.652344 -3.601562 C 2.695312 -3.5625 2.757812 -3.542969 2.828125 -3.542969 L 3.707031 -3.542969 C 3.882812 -3.542969 4.007812 -3.601562 4.085938 -3.71875 C 4.160156 -3.835938 4.226562 -3.976562 4.285156 -4.140625 C 4.335938 -4.265625 4.40625 -4.328125 4.488281 -4.328125 C 4.519531 -4.328125 4.550781 -4.308594 4.578125 -4.273438 C 4.605469 -4.234375 4.617188 -4.179688 4.613281 -4.109375 C 4.605469 -4.027344 4.597656 -3.941406 4.589844 -3.847656 C 4.582031 -3.753906 4.574219 -3.664062 4.570312 -3.570312 C 4.566406 -3.480469 4.566406 -3.390625 4.566406 -3.304688 C 4.566406 -3.222656 4.566406 -3.132812 4.570312 -3.039062 C 4.574219 -2.945312 4.578125 -2.851562 4.585938 -2.757812 C 4.589844 -2.664062 4.597656 -2.570312 4.601562 -2.484375 C 4.613281 -2.394531 4.609375 -2.328125 4.585938 -2.289062 C 4.566406 -2.246094 4.539062 -2.226562 4.503906 -2.226562 C 4.394531 -2.226562 4.3125 -2.308594 4.265625 -2.480469 C 4.207031 -2.683594 4.144531 -2.835938 4.066406 -2.941406 C 3.992188 -3.046875 3.890625 -3.101562 3.765625 -3.101562 L 2.824219 -3.101562 C 2.746094 -3.101562 2.683594 -3.082031 2.644531 -3.042969 C 2.605469 -3.003906 2.585938 -2.945312 2.585938 -2.867188 L 2.585938 -0.972656 C 2.585938 -0.773438 2.625 -0.632812 2.710938 -0.550781 C 2.796875 -0.472656 2.925781 -0.433594 3.105469 -0.433594 L 3.96875 -0.433594 C 4.117188 -0.433594 4.253906 -0.449219 4.386719 -0.484375 C 4.519531 -0.519531 4.632812 -0.574219 4.730469 -0.652344 C 4.84375 -0.742188 4.945312 -0.855469 5.039062 -1 C 5.132812 -1.140625 5.222656 -1.289062 5.300781 -1.445312 C 5.324219 -1.496094 5.351562 -1.53125 5.382812 -1.546875 C 5.414062 -1.5625 5.445312 -1.570312 5.484375 -1.566406 C 5.523438 -1.566406 5.550781 -1.546875 5.566406 -1.507812 C 5.578125 -1.46875 5.585938 -1.425781 5.585938 -1.378906 C 5.585938 -1.269531 5.570312 -1.144531 5.535156 -1 C 5.503906 -0.859375 5.460938 -0.710938 5.410156 -0.554688 C 5.359375 -0.394531 5.3125 -0.242188 5.269531 -0.0859375 C 5.253906 -0.0390625 5.226562 -0.0078125 5.183594 0.0117188 C 5.144531 0.03125 5.097656 0.0429688 5.046875 0.0429688 C 4.960938 0.0429688 4.800781 0.0390625 4.566406 0.0351562 C 4.332031 0.03125 4.054688 0.0273438 3.734375 0.0195312 C 3.414062 0.0117188 3.082031 0.0078125 2.742188 0.00390625 C 2.402344 0 2.085938 0 1.792969 0 C 1.65625 0 1.507812 0 1.347656 0.0078125 C 1.1875 0.015625 1.023438 0.0234375 0.863281 0.0351562 C 0.699219 0.046875 0.546875 0.0507812 0.40625 0.0507812 Z "/>
</g>
<g id="glyph-0-3">
<path d="M 6.453125 0.210938 C 6.113281 0.210938 5.824219 0.167969 5.589844 0.0859375 C 5.355469 0.00390625 5.15625 -0.105469 4.996094 -0.242188 C 4.832031 -0.378906 4.6875 -0.535156 4.554688 -0.707031 C 4.410156 -0.902344 4.273438 -1.097656 4.136719 -1.289062 C 4 -1.484375 3.867188 -1.695312 3.734375 -1.921875 C 3.601562 -2.148438 3.460938 -2.40625 3.3125 -2.699219 C 3.242188 -2.847656 3.148438 -2.953125 3.039062 -3.015625 C 2.980469 -3.050781 2.921875 -3.074219 2.859375 -3.085938 C 2.796875 -3.101562 2.746094 -3.109375 2.699219 -3.109375 C 2.664062 -3.109375 2.636719 -3.09375 2.617188 -3.054688 C 2.601562 -3.019531 2.59375 -2.96875 2.59375 -2.910156 L 2.59375 -1 C 2.59375 -0.792969 2.648438 -0.644531 2.761719 -0.550781 C 2.875 -0.457031 3.074219 -0.378906 3.351562 -0.320312 C 3.421875 -0.308594 3.476562 -0.285156 3.511719 -0.257812 C 3.546875 -0.226562 3.566406 -0.179688 3.566406 -0.117188 C 3.566406 -0.0703125 3.550781 -0.0351562 3.519531 -0.0117188 C 3.488281 0.0117188 3.441406 0.0273438 3.382812 0.0273438 C 3.238281 0.0273438 3.066406 0.0234375 2.875 0.015625 C 2.683594 0.0078125 2.492188 0 2.308594 -0.0078125 C 2.121094 -0.015625 1.960938 -0.0195312 1.828125 -0.0195312 C 1.691406 -0.0195312 1.535156 -0.015625 1.367188 -0.0078125 C 1.199219 0 1.03125 0.0078125 0.855469 0.0195312 C 0.683594 0.0273438 0.519531 0.0351562 0.367188 0.0351562 C 0.316406 0.0351562 0.273438 0.0195312 0.230469 -0.00390625 C 0.1875 -0.0273438 0.167969 -0.0625 0.167969 -0.109375 C 0.167969 -0.214844 0.238281 -0.289062 0.382812 -0.320312 C 0.636719 -0.375 0.808594 -0.441406 0.90625 -0.527344 C 1.003906 -0.613281 1.054688 -0.761719 1.054688 -0.976562 L 1.054688 -5.464844 C 1.054688 -5.628906 1.039062 -5.757812 1.007812 -5.851562 C 0.976562 -5.941406 0.917969 -6.015625 0.832031 -6.066406 C 0.746094 -6.117188 0.617188 -6.15625 0.453125 -6.1875 C 0.367188 -6.207031 0.304688 -6.234375 0.273438 -6.273438 C 0.238281 -6.3125 0.21875 -6.355469 0.21875 -6.394531 C 0.21875 -6.441406 0.242188 -6.476562 0.28125 -6.503906 C 0.320312 -6.53125 0.371094 -6.546875 0.4375 -6.546875 C 0.648438 -6.546875 0.824219 -6.539062 0.960938 -6.53125 C 1.097656 -6.519531 1.226562 -6.507812 1.351562 -6.496094 C 1.476562 -6.484375 1.621094 -6.480469 1.785156 -6.480469 C 1.941406 -6.480469 2.078125 -6.488281 2.195312 -6.503906 C 2.316406 -6.519531 2.449219 -6.53125 2.597656 -6.546875 C 2.746094 -6.5625 2.9375 -6.570312 3.171875 -6.570312 C 3.949219 -6.570312 4.550781 -6.4375 4.972656 -6.171875 C 5.394531 -5.90625 5.605469 -5.503906 5.605469 -4.960938 C 5.605469 -4.664062 5.539062 -4.410156 5.40625 -4.203125 C 5.277344 -4 5.113281 -3.832031 4.917969 -3.703125 C 4.71875 -3.578125 4.519531 -3.480469 4.316406 -3.414062 C 4.289062 -3.40625 4.277344 -3.390625 4.28125 -3.363281 C 4.285156 -3.339844 4.292969 -3.316406 4.308594 -3.292969 C 4.511719 -2.996094 4.707031 -2.710938 4.894531 -2.433594 C 5.085938 -2.160156 5.28125 -1.90625 5.480469 -1.667969 C 5.679688 -1.429688 5.886719 -1.210938 6.101562 -1.007812 C 6.324219 -0.800781 6.554688 -0.675781 6.792969 -0.636719 C 7.027344 -0.597656 7.265625 -0.578125 7.496094 -0.578125 C 7.597656 -0.578125 7.648438 -0.519531 7.648438 -0.402344 C 7.648438 -0.253906 7.597656 -0.132812 7.492188 -0.046875 C 7.390625 0.0429688 7.25 0.105469 7.066406 0.148438 C 6.886719 0.191406 6.679688 0.210938 6.453125 0.210938 Z M 2.972656 -3.429688 C 3.226562 -3.429688 3.433594 -3.484375 3.601562 -3.597656 C 3.765625 -3.710938 3.894531 -3.867188 3.976562 -4.0625 C 4.0625 -4.257812 4.105469 -4.484375 4.105469 -4.738281 C 4.105469 -5.050781 4.066406 -5.308594 3.988281 -5.511719 C 3.910156 -5.714844 3.789062 -5.871094 3.628906 -5.976562 C 3.46875 -6.078125 3.261719 -6.128906 3.011719 -6.128906 C 2.863281 -6.128906 2.757812 -6.070312 2.695312 -5.953125 C 2.632812 -5.835938 2.597656 -5.589844 2.59375 -5.207031 C 2.59375 -5.058594 2.59375 -4.867188 2.59375 -4.632812 C 2.59375 -4.398438 2.59375 -4.121094 2.59375 -3.804688 C 2.59375 -3.664062 2.625 -3.566406 2.695312 -3.511719 C 2.765625 -3.457031 2.855469 -3.429688 2.972656 -3.429688 Z "/>
</g>
<g id="glyph-0-4">
<path d="M 0.222656 0.0507812 C 0.144531 0.0507812 0.0820312 0.0390625 0.03125 0.015625 C -0.0195312 -0.0078125 -0.0429688 -0.0507812 -0.0429688 -0.113281 C -0.0429688 -0.175781 -0.0234375 -0.222656 0.0234375 -0.253906 C 0.0703125 -0.285156 0.125 -0.3125 0.195312 -0.335938 C 0.390625 -0.386719 0.558594 -0.46875 0.703125 -0.582031 C 0.847656 -0.695312 0.957031 -0.832031 1.03125 -0.996094 C 1.195312 -1.375 1.351562 -1.746094 1.5 -2.109375 C 1.648438 -2.472656 1.792969 -2.828125 1.933594 -3.1875 C 2.074219 -3.542969 2.210938 -3.90625 2.351562 -4.273438 C 2.492188 -4.644531 2.628906 -5.019531 2.769531 -5.402344 C 2.867188 -5.671875 2.929688 -5.867188 2.957031 -5.992188 C 2.984375 -6.113281 3.007812 -6.1875 3.023438 -6.210938 C 3.144531 -6.242188 3.257812 -6.273438 3.359375 -6.300781 C 3.464844 -6.328125 3.578125 -6.367188 3.703125 -6.410156 C 3.816406 -6.457031 3.917969 -6.515625 4 -6.585938 C 4.085938 -6.660156 4.148438 -6.714844 4.1875 -6.761719 C 4.21875 -6.777344 4.246094 -6.789062 4.273438 -6.792969 C 4.296875 -6.800781 4.324219 -6.78125 4.347656 -6.734375 C 4.371094 -6.691406 4.390625 -6.648438 4.40625 -6.605469 C 4.421875 -6.5625 4.433594 -6.515625 4.449219 -6.464844 C 4.585938 -6.011719 4.730469 -5.554688 4.878906 -5.09375 C 5.027344 -4.632812 5.175781 -4.171875 5.328125 -3.710938 C 5.476562 -3.246094 5.625 -2.792969 5.773438 -2.34375 C 5.921875 -1.894531 6.0625 -1.460938 6.195312 -1.035156 C 6.238281 -0.898438 6.304688 -0.785156 6.386719 -0.691406 C 6.46875 -0.601562 6.5625 -0.527344 6.671875 -0.46875 C 6.78125 -0.414062 6.898438 -0.367188 7.035156 -0.328125 C 7.105469 -0.308594 7.160156 -0.285156 7.207031 -0.253906 C 7.25 -0.226562 7.273438 -0.179688 7.273438 -0.117188 C 7.273438 -0.0703125 7.253906 -0.0351562 7.214844 -0.0117188 C 7.175781 0.0117188 7.125 0.0273438 7.066406 0.0273438 C 6.933594 0.0273438 6.769531 0.0234375 6.574219 0.015625 C 6.378906 0.0078125 6.183594 0 5.984375 -0.0078125 C 5.785156 -0.015625 5.605469 -0.0195312 5.453125 -0.0195312 C 5.320312 -0.0195312 5.164062 -0.015625 4.980469 -0.0117188 C 4.800781 -0.00390625 4.617188 0.00390625 4.429688 0.0117188 C 4.246094 0.0195312 4.085938 0.0234375 3.953125 0.0234375 C 3.894531 0.0234375 3.839844 0.0117188 3.796875 -0.015625 C 3.75 -0.0390625 3.730469 -0.0742188 3.730469 -0.121094 C 3.730469 -0.179688 3.753906 -0.222656 3.800781 -0.261719 C 3.847656 -0.296875 3.902344 -0.320312 3.96875 -0.335938 C 4.214844 -0.386719 4.398438 -0.453125 4.511719 -0.539062 C 4.628906 -0.625 4.664062 -0.753906 4.621094 -0.933594 C 4.59375 -1.058594 4.558594 -1.191406 4.523438 -1.332031 C 4.484375 -1.46875 4.445312 -1.609375 4.40625 -1.753906 C 4.367188 -1.902344 4.332031 -2.042969 4.296875 -2.175781 C 4.28125 -2.230469 4.261719 -2.269531 4.242188 -2.292969 C 4.21875 -2.320312 4.175781 -2.335938 4.113281 -2.335938 L 2.347656 -2.335938 C 2.300781 -2.335938 2.261719 -2.320312 2.238281 -2.289062 C 2.214844 -2.261719 2.195312 -2.21875 2.179688 -2.164062 C 2.152344 -2.070312 2.125 -1.972656 2.089844 -1.878906 C 2.058594 -1.785156 2.027344 -1.691406 1.996094 -1.597656 C 1.964844 -1.503906 1.9375 -1.410156 1.910156 -1.320312 C 1.882812 -1.226562 1.855469 -1.136719 1.832031 -1.050781 C 1.785156 -0.847656 1.804688 -0.695312 1.890625 -0.589844 C 1.976562 -0.484375 2.160156 -0.398438 2.445312 -0.332031 C 2.605469 -0.292969 2.6875 -0.222656 2.6875 -0.117188 C 2.6875 -0.0703125 2.667969 -0.0351562 2.632812 -0.015625 C 2.59375 0.0078125 2.539062 0.0195312 2.460938 0.0195312 C 2.265625 0.0195312 2.085938 0.0117188 1.917969 0.00390625 C 1.75 -0.00390625 1.570312 -0.0117188 1.371094 -0.0117188 C 1.171875 -0.0117188 0.984375 0 0.800781 0.0195312 C 0.617188 0.0390625 0.425781 0.0507812 0.222656 0.0507812 Z M 2.625 -2.871094 L 3.929688 -2.871094 C 4.027344 -2.871094 4.078125 -2.890625 4.078125 -2.9375 C 4.078125 -2.960938 4.078125 -2.976562 4.074219 -2.988281 C 4.070312 -3 4.066406 -3.019531 4.058594 -3.042969 L 3.394531 -5.296875 C 3.371094 -5.371094 3.347656 -5.410156 3.328125 -5.410156 C 3.316406 -5.410156 3.292969 -5.371094 3.265625 -5.296875 L 2.46875 -3.042969 C 2.457031 -3.015625 2.449219 -2.988281 2.449219 -2.964844 C 2.449219 -2.929688 2.46875 -2.90625 2.503906 -2.890625 C 2.539062 -2.875 2.582031 -2.871094 2.625 -2.871094 Z "/>
</g>
<g id="glyph-0-5">
<path d="M 2.058594 0.0351562 C 2.011719 0.0351562 1.960938 0.0195312 1.910156 -0.00390625 C 1.859375 -0.0273438 1.832031 -0.0625 1.832031 -0.109375 C 1.832031 -0.167969 1.855469 -0.214844 1.902344 -0.246094 C 1.945312 -0.28125 2.003906 -0.308594 2.074219 -0.320312 C 2.328125 -0.375 2.511719 -0.445312 2.625 -0.53125 C 2.738281 -0.617188 2.796875 -0.765625 2.796875 -0.980469 L 2.796875 -5.105469 C 2.796875 -5.367188 2.789062 -5.5625 2.777344 -5.6875 C 2.761719 -5.8125 2.746094 -5.894531 2.722656 -5.9375 C 2.703125 -5.980469 2.671875 -6.007812 2.636719 -6.019531 C 2.582031 -6.050781 2.503906 -6.070312 2.40625 -6.074219 C 2.308594 -6.082031 2.230469 -6.082031 2.171875 -6.082031 L 1.945312 -6.082031 C 1.738281 -6.082031 1.539062 -6.03125 1.34375 -5.925781 C 1.152344 -5.824219 1 -5.691406 0.890625 -5.539062 C 0.859375 -5.492188 0.8125 -5.429688 0.75 -5.347656 C 0.6875 -5.265625 0.617188 -5.191406 0.550781 -5.128906 C 0.480469 -5.066406 0.410156 -5.035156 0.339844 -5.035156 C 0.285156 -5.035156 0.25 -5.050781 0.226562 -5.085938 C 0.207031 -5.121094 0.195312 -5.160156 0.195312 -5.207031 C 0.195312 -5.289062 0.21875 -5.375 0.261719 -5.464844 C 0.386719 -5.710938 0.480469 -5.925781 0.542969 -6.105469 C 0.601562 -6.285156 0.640625 -6.496094 0.664062 -6.734375 C 0.675781 -6.832031 0.707031 -6.898438 0.75 -6.933594 C 0.792969 -6.96875 0.847656 -6.988281 0.90625 -6.988281 C 0.953125 -6.988281 1.007812 -6.945312 1.058594 -6.859375 C 1.113281 -6.773438 1.171875 -6.707031 1.230469 -6.652344 C 1.296875 -6.597656 1.410156 -6.554688 1.566406 -6.527344 C 1.722656 -6.5 1.851562 -6.484375 1.945312 -6.484375 L 5.710938 -6.492188 C 5.878906 -6.492188 6.023438 -6.511719 6.140625 -6.542969 C 6.257812 -6.574219 6.34375 -6.605469 6.402344 -6.636719 C 6.507812 -6.699219 6.59375 -6.765625 6.65625 -6.839844 C 6.71875 -6.914062 6.796875 -6.949219 6.878906 -6.949219 C 6.921875 -6.949219 6.953125 -6.933594 6.96875 -6.902344 C 6.984375 -6.871094 6.992188 -6.832031 6.992188 -6.777344 C 6.992188 -6.75 6.988281 -6.71875 6.984375 -6.679688 C 6.980469 -6.640625 6.976562 -6.605469 6.96875 -6.570312 C 6.9375 -6.441406 6.90625 -6.316406 6.871094 -6.199219 C 6.839844 -6.085938 6.8125 -5.972656 6.792969 -5.867188 C 6.773438 -5.761719 6.761719 -5.652344 6.761719 -5.539062 L 6.761719 -5.34375 C 6.761719 -5.234375 6.75 -5.148438 6.726562 -5.082031 C 6.703125 -5.015625 6.65625 -4.984375 6.59375 -4.984375 C 6.53125 -4.984375 6.476562 -5.015625 6.4375 -5.078125 C 6.398438 -5.140625 6.355469 -5.238281 6.3125 -5.378906 C 6.238281 -5.621094 6.128906 -5.800781 5.984375 -5.914062 C 5.839844 -6.027344 5.621094 -6.082031 5.328125 -6.082031 L 4.808594 -6.082031 C 4.695312 -6.082031 4.601562 -6.058594 4.53125 -6.007812 C 4.460938 -5.957031 4.410156 -5.855469 4.378906 -5.703125 C 4.347656 -5.550781 4.335938 -5.320312 4.335938 -5.015625 L 4.335938 -0.988281 C 4.335938 -0.792969 4.390625 -0.648438 4.5 -0.558594 C 4.609375 -0.46875 4.792969 -0.390625 5.050781 -0.320312 C 5.121094 -0.300781 5.175781 -0.277344 5.222656 -0.253906 C 5.265625 -0.226562 5.289062 -0.179688 5.289062 -0.117188 C 5.289062 -0.0703125 5.269531 -0.0351562 5.230469 -0.0117188 C 5.191406 0.0117188 5.140625 0.0273438 5.082031 0.0273438 C 4.933594 0.0273438 4.769531 0.0234375 4.582031 0.015625 C 4.398438 0.0078125 4.214844 0 4.035156 -0.0078125 C 3.855469 -0.0117188 3.695312 -0.015625 3.558594 -0.015625 C 3.417969 -0.015625 3.261719 -0.0117188 3.085938 -0.0078125 C 2.910156 0 2.734375 0.0078125 2.554688 0.0195312 C 2.375 0.0273438 2.210938 0.0351562 2.058594 0.0351562 Z "/>
</g>
</g>
</defs>
<g fill="rgb(85.098039%, 46.666667%, 34.117647%)" fill-opacity="1">
<use xlink:href="#glyph-0-0" x="30" y="30.070312"/>
<use xlink:href="#glyph-0-1" x="38" y="30.070312"/>
<use xlink:href="#glyph-0-2" x="44" y="30.070312"/>
<use xlink:href="#glyph-0-3" x="50" y="30.070312"/>
<use xlink:href="#glyph-0-4" x="58" y="30.070312"/>
<use xlink:href="#glyph-0-5" x="64" y="30.070312"/>
<use xlink:href="#glyph-0-0" x="71" y="30.070312"/>
<use xlink:href="#glyph-0-3" x="79" y="30.070312"/>
</g>
</svg>
