<?xml version="1.0" encoding="UTF-8"?>
<svg xmlns="http://www.w3.org/2000/svg" xmlns:xlink="http://www.w3.org/1999/xlink" width="3840" height="2160" viewBox="0 0 3840 2160">
<defs>
<g>
<g id="glyph-0-0">
<path d="M 2.085938 0.078125 C 1.828125 0.078125 1.585938 0.0351562 1.351562 -0.0546875 C 1.121094 -0.140625 0.917969 -0.265625 0.738281 -0.425781 C 0.558594 -0.585938 0.417969 -0.777344 0.3125 -1.003906 C 0.210938 -1.226562 0.160156 -1.476562 0.160156 -1.75 C 0.160156 -2 0.199219 -2.242188 0.285156 -2.476562 C 0.371094 -2.707031 0.496094 -2.914062 0.664062 -3.09375 C 0.828125 -3.277344 1.035156 -3.421875 1.28125 -3.527344 C 1.527344 -3.636719 1.8125 -3.6875 2.136719 -3.6875 C 2.390625 -3.6875 2.636719 -3.644531 2.867188 -3.558594 C 3.097656 -3.472656 3.304688 -3.347656 3.484375 -3.1875 C 3.664062 -3.027344 3.804688 -2.832031 3.90625 -2.609375 C 4.011719 -2.382812 4.0625 -2.136719 4.0625 -1.859375 C 4.0625 -1.613281 4.019531 -1.371094 3.933594 -1.140625 C 3.851562 -0.90625 3.726562 -0.699219 3.558594 -0.515625 C 3.390625 -0.335938 3.183594 -0.191406 2.9375 -0.0820312 C 2.691406 0.0234375 2.40625 0.078125 2.085938 0.078125 Z M 2.183594 -0.175781 C 2.394531 -0.175781 2.570312 -0.234375 2.714844 -0.355469 C 2.855469 -0.472656 2.960938 -0.636719 3.035156 -0.847656 C 3.105469 -1.058594 3.140625 -1.300781 3.140625 -1.574219 C 3.140625 -1.804688 3.121094 -2.027344 3.074219 -2.246094 C 3.03125 -2.464844 2.964844 -2.667969 2.871094 -2.84375 C 2.78125 -3.023438 2.667969 -3.164062 2.527344 -3.269531 C 2.386719 -3.375 2.222656 -3.429688 2.027344 -3.429688 C 1.820312 -3.429688 1.644531 -3.367188 1.503906 -3.25 C 1.363281 -3.132812 1.253906 -2.96875 1.183594 -2.761719 C 1.113281 -2.550781 1.078125 -2.3125 1.078125 -2.035156 C 1.078125 -1.808594 1.101562 -1.582031 1.144531 -1.363281 C 1.1875 -1.144531 1.253906 -0.945312 1.34375 -0.765625 C 1.433594 -0.585938 1.546875 -0.445312 1.6875 -0.335938 C 1.828125 -0.230469 1.992188 -0.175781 2.183594 -0.175781 Z "/>
</g>
<g id="glyph-0-1">
<path d="M 0.203125 0.0195312 C 0.175781 0.0195312 0.152344 0.0117188 0.128906 -0.00390625 C 0.105469 -0.015625 0.09375 -0.0351562 0.09375 -0.0625 C 0.09375 -0.121094 0.132812 -0.160156 0.210938 -0.179688 C 0.351562 -0.207031 0.449219 -0.246094 0.503906 -0.292969 C 0.558594 -0.339844 0.585938 -0.421875 0.585938 -0.542969 L 0.585938 -3.03125 C 0.585938 -3.160156 0.5625 -3.25 0.515625 -3.308594 C 0.472656 -3.367188 0.382812 -3.410156 0.25 -3.4375 C 0.203125 -3.449219 0.171875 -3.464844 0.152344 -3.488281 C 0.132812 -3.507812 0.121094 -3.53125 0.121094 -3.554688 C 0.121094 -3.578125 0.132812 -3.597656 0.15625 -3.613281 C 0.179688 -3.628906 0.207031 -3.636719 0.242188 -3.636719 C 0.328125 -3.636719 0.414062 -3.636719 0.5 -3.632812 C 0.589844 -3.628906 0.675781 -3.625 0.757812 -3.621094 C 0.84375 -3.617188 0.921875 -3.613281 0.996094 -3.613281 C 1.082031 -3.613281 1.160156 -3.617188 1.230469 -3.625 C 1.300781 -3.632812 1.375 -3.644531 1.457031 -3.652344 C 1.539062 -3.660156 1.640625 -3.664062 1.761719 -3.664062 C 2.210938 -3.664062 2.570312 -3.570312 2.835938 -3.378906 C 3.101562 -3.1875 3.234375 -2.925781 3.234375 -2.59375 C 3.234375 -2.363281 3.183594 -2.148438 3.085938 -1.949219 C 2.988281 -1.753906 2.839844 -1.59375 2.640625 -1.476562 C 2.441406 -1.355469 2.191406 -1.296875 1.886719 -1.296875 C 1.792969 -1.296875 1.71875 -1.3125 1.667969 -1.339844 C 1.617188 -1.367188 1.59375 -1.402344 1.59375 -1.445312 C 1.59375 -1.472656 1.605469 -1.492188 1.628906 -1.507812 C 1.65625 -1.523438 1.675781 -1.53125 1.695312 -1.53125 C 1.734375 -1.53125 1.769531 -1.527344 1.800781 -1.519531 C 1.828125 -1.511719 1.871094 -1.507812 1.921875 -1.507812 C 2.078125 -1.507812 2.195312 -1.59375 2.277344 -1.769531 C 2.355469 -1.941406 2.394531 -2.171875 2.394531 -2.453125 C 2.394531 -2.796875 2.339844 -3.042969 2.226562 -3.195312 C 2.117188 -3.347656 1.960938 -3.421875 1.761719 -3.421875 C 1.660156 -3.421875 1.582031 -3.398438 1.527344 -3.355469 C 1.472656 -3.308594 1.445312 -3.238281 1.445312 -3.140625 L 1.441406 -0.558594 C 1.441406 -0.441406 1.472656 -0.355469 1.535156 -0.304688 C 1.597656 -0.253906 1.707031 -0.210938 1.863281 -0.179688 C 1.902344 -0.171875 1.929688 -0.160156 1.949219 -0.140625 C 1.972656 -0.125 1.980469 -0.101562 1.980469 -0.0664062 C 1.980469 -0.0390625 1.972656 -0.0195312 1.957031 -0.0078125 C 1.9375 0.0078125 1.914062 0.015625 1.878906 0.015625 C 1.796875 0.015625 1.703125 0.0117188 1.597656 0.0078125 C 1.492188 0.00390625 1.386719 0 1.28125 -0.00390625 C 1.179688 -0.0078125 1.089844 -0.0117188 1.015625 -0.0117188 C 0.9375 -0.0117188 0.855469 -0.0078125 0.761719 -0.00390625 C 0.667969 0 0.570312 0.00390625 0.476562 0.0117188 C 0.378906 0.015625 0.289062 0.0195312 0.203125 0.0195312 Z "/>
</g>
<g id="glyph-0-2">
<path d="M 0.226562 0.0273438 C 0.191406 0.0273438 0.160156 0.0195312 0.140625 0.00390625 C 0.121094 -0.015625 0.109375 -0.0351562 0.109375 -0.0546875 C 0.109375 -0.109375 0.152344 -0.148438 0.234375 -0.167969 C 0.359375 -0.203125 0.449219 -0.246094 0.5 -0.289062 C 0.554688 -0.332031 0.582031 -0.414062 0.582031 -0.53125 L 0.582031 -3.058594 C 0.582031 -3.179688 0.558594 -3.265625 0.511719 -3.316406 C 0.460938 -3.367188 0.371094 -3.410156 0.242188 -3.4375 C 0.195312 -3.449219 0.160156 -3.464844 0.140625 -3.488281 C 0.121094 -3.507812 0.113281 -3.53125 0.113281 -3.554688 C 0.113281 -3.578125 0.125 -3.597656 0.144531 -3.613281 C 0.167969 -3.628906 0.195312 -3.636719 0.234375 -3.636719 C 0.324219 -3.636719 0.417969 -3.636719 0.515625 -3.632812 C 0.613281 -3.628906 0.707031 -3.625 0.800781 -3.617188 C 0.894531 -3.613281 0.980469 -3.609375 1.066406 -3.609375 C 1.257812 -3.609375 1.464844 -3.613281 1.679688 -3.617188 C 1.898438 -3.621094 2.09375 -3.621094 2.265625 -3.625 C 2.382812 -3.625 2.484375 -3.632812 2.5625 -3.644531 C 2.640625 -3.65625 2.683594 -3.664062 2.699219 -3.664062 C 2.726562 -3.664062 2.757812 -3.65625 2.785156 -3.640625 C 2.816406 -3.625 2.832031 -3.597656 2.835938 -3.558594 C 2.851562 -3.429688 2.871094 -3.300781 2.894531 -3.175781 C 2.917969 -3.046875 2.929688 -2.9375 2.929688 -2.839844 C 2.929688 -2.804688 2.921875 -2.777344 2.90625 -2.761719 C 2.890625 -2.746094 2.875 -2.734375 2.855469 -2.734375 C 2.835938 -2.734375 2.816406 -2.742188 2.796875 -2.757812 C 2.777344 -2.769531 2.761719 -2.792969 2.75 -2.824219 C 2.710938 -2.917969 2.679688 -2.996094 2.648438 -3.0625 C 2.621094 -3.128906 2.585938 -3.179688 2.550781 -3.21875 C 2.507812 -3.261719 2.453125 -3.304688 2.390625 -3.339844 C 2.328125 -3.375 2.246094 -3.390625 2.148438 -3.390625 L 1.730469 -3.390625 C 1.648438 -3.390625 1.582031 -3.371094 1.523438 -3.328125 C 1.464844 -3.285156 1.4375 -3.226562 1.4375 -3.152344 L 1.4375 -2.101562 C 1.4375 -2.054688 1.449219 -2.023438 1.472656 -2 C 1.496094 -1.980469 1.53125 -1.96875 1.570312 -1.96875 L 2.058594 -1.96875 C 2.15625 -1.96875 2.226562 -2 2.269531 -2.066406 C 2.3125 -2.132812 2.347656 -2.210938 2.378906 -2.300781 C 2.410156 -2.371094 2.445312 -2.40625 2.496094 -2.40625 C 2.511719 -2.40625 2.527344 -2.394531 2.542969 -2.375 C 2.558594 -2.351562 2.566406 -2.324219 2.5625 -2.285156 C 2.558594 -2.238281 2.554688 -2.191406 2.550781 -2.136719 C 2.546875 -2.085938 2.542969 -2.035156 2.539062 -1.984375 C 2.539062 -1.933594 2.535156 -1.882812 2.535156 -1.835938 C 2.535156 -1.789062 2.539062 -1.742188 2.539062 -1.6875 C 2.539062 -1.636719 2.542969 -1.585938 2.546875 -1.53125 C 2.550781 -1.480469 2.554688 -1.429688 2.554688 -1.378906 C 2.5625 -1.328125 2.558594 -1.292969 2.546875 -1.269531 C 2.535156 -1.246094 2.519531 -1.234375 2.503906 -1.234375 C 2.441406 -1.234375 2.394531 -1.285156 2.371094 -1.378906 C 2.339844 -1.492188 2.300781 -1.574219 2.261719 -1.632812 C 2.21875 -1.691406 2.164062 -1.722656 2.089844 -1.722656 L 1.570312 -1.722656 C 1.523438 -1.722656 1.492188 -1.710938 1.46875 -1.691406 C 1.445312 -1.671875 1.4375 -1.636719 1.4375 -1.59375 L 1.4375 -0.539062 C 1.4375 -0.429688 1.460938 -0.351562 1.507812 -0.308594 C 1.554688 -0.261719 1.625 -0.238281 1.726562 -0.238281 L 2.203125 -0.238281 C 2.285156 -0.238281 2.363281 -0.25 2.4375 -0.269531 C 2.511719 -0.289062 2.574219 -0.320312 2.628906 -0.363281 C 2.691406 -0.414062 2.746094 -0.476562 2.800781 -0.554688 C 2.851562 -0.632812 2.902344 -0.714844 2.945312 -0.804688 C 2.960938 -0.832031 2.972656 -0.851562 2.992188 -0.859375 C 3.007812 -0.867188 3.027344 -0.871094 3.046875 -0.871094 C 3.070312 -0.871094 3.082031 -0.859375 3.089844 -0.835938 C 3.097656 -0.8125 3.105469 -0.792969 3.105469 -0.765625 C 3.105469 -0.703125 3.09375 -0.636719 3.074219 -0.554688 C 3.058594 -0.476562 3.035156 -0.394531 3.007812 -0.308594 C 2.980469 -0.21875 2.953125 -0.132812 2.925781 -0.046875 C 2.917969 -0.0234375 2.902344 -0.00390625 2.878906 0.0078125 C 2.855469 0.0195312 2.832031 0.0234375 2.804688 0.0234375 C 2.757812 0.0234375 2.667969 0.0234375 2.535156 0.0195312 C 2.40625 0.0195312 2.253906 0.015625 2.074219 0.0117188 C 1.894531 0.0078125 1.710938 0.00390625 1.523438 0.00390625 C 1.335938 0 1.160156 0 0.996094 0 C 0.921875 0 0.839844 0 0.75 0.00390625 C 0.660156 0.0078125 0.570312 0.015625 0.480469 0.0195312 C 0.390625 0.0234375 0.304688 0.0273438 0.226562 0.0273438 Z "/>
</g>
<g id="glyph-0-3">
<path d="M 3.585938 0.117188 C 3.394531 0.117188 3.234375 0.09375 3.105469 0.046875 C 2.976562 0.00390625 2.863281 -0.0585938 2.773438 -0.132812 C 2.683594 -0.210938 2.605469 -0.296875 2.53125 -0.394531 C 2.453125 -0.5 2.375 -0.609375 2.296875 -0.71875 C 2.222656 -0.824219 2.148438 -0.941406 2.074219 -1.066406 C 2 -1.191406 1.921875 -1.335938 1.839844 -1.5 C 1.800781 -1.582031 1.75 -1.640625 1.6875 -1.675781 C 1.65625 -1.695312 1.621094 -1.707031 1.589844 -1.714844 C 1.554688 -1.722656 1.523438 -1.726562 1.5 -1.726562 C 1.480469 -1.726562 1.464844 -1.71875 1.453125 -1.699219 C 1.445312 -1.675781 1.441406 -1.648438 1.441406 -1.617188 L 1.441406 -0.554688 C 1.441406 -0.441406 1.472656 -0.355469 1.535156 -0.304688 C 1.597656 -0.253906 1.707031 -0.210938 1.863281 -0.179688 C 1.902344 -0.171875 1.929688 -0.160156 1.949219 -0.140625 C 1.972656 -0.125 1.980469 -0.101562 1.980469 -0.0664062 C 1.980469 -0.0390625 1.972656 -0.0195312 1.957031 -0.0078125 C 1.9375 0.0078125 1.914062 0.015625 1.878906 0.015625 C 1.796875 0.015625 1.703125 0.0117188 1.597656 0.0078125 C 1.492188 0.00390625 1.386719 0 1.28125 -0.00390625 C 1.179688 -0.0078125 1.089844 -0.0117188 1.015625 -0.0117188 C 0.9375 -0.0117188 0.855469 -0.0078125 0.761719 -0.00390625 C 0.667969 0 0.570312 0.00390625 0.476562 0.0117188 C 0.378906 0.015625 0.289062 0.0195312 0.203125 0.0195312 C 0.175781 0.0195312 0.152344 0.0117188 0.128906 -0.00390625 C 0.105469 -0.015625 0.09375 -0.0351562 0.09375 -0.0625 C 0.09375 -0.121094 0.132812 -0.160156 0.210938 -0.179688 C 0.351562 -0.207031 0.449219 -0.246094 0.503906 -0.292969 C 0.558594 -0.339844 0.585938 -0.421875 0.585938 -0.542969 L 0.585938 -3.035156 C 0.585938 -3.128906 0.578125 -3.199219 0.558594 -3.25 C 0.542969 -3.300781 0.507812 -3.339844 0.460938 -3.371094 C 0.414062 -3.398438 0.34375 -3.421875 0.25 -3.4375 C 0.203125 -3.449219 0.171875 -3.464844 0.152344 -3.484375 C 0.132812 -3.507812 0.121094 -3.53125 0.121094 -3.554688 C 0.121094 -3.578125 0.132812 -3.597656 0.15625 -3.613281 C 0.179688 -3.628906 0.207031 -3.636719 0.242188 -3.636719 C 0.359375 -3.636719 0.457031 -3.632812 0.535156 -3.628906 C 0.609375 -3.621094 0.683594 -3.617188 0.75 -3.609375 C 0.820312 -3.601562 0.898438 -3.597656 0.992188 -3.597656 C 1.078125 -3.597656 1.152344 -3.605469 1.21875 -3.613281 C 1.285156 -3.621094 1.359375 -3.628906 1.441406 -3.636719 C 1.523438 -3.644531 1.632812 -3.648438 1.761719 -3.648438 C 2.195312 -3.648438 2.527344 -3.578125 2.761719 -3.429688 C 2.996094 -3.28125 3.113281 -3.058594 3.113281 -2.757812 C 3.113281 -2.589844 3.078125 -2.449219 3.003906 -2.335938 C 2.929688 -2.222656 2.839844 -2.128906 2.730469 -2.058594 C 2.621094 -1.988281 2.511719 -1.933594 2.398438 -1.898438 C 2.382812 -1.894531 2.378906 -1.882812 2.378906 -1.871094 C 2.382812 -1.855469 2.386719 -1.839844 2.394531 -1.828125 C 2.507812 -1.664062 2.613281 -1.503906 2.71875 -1.351562 C 2.824219 -1.199219 2.933594 -1.058594 3.042969 -0.925781 C 3.15625 -0.796875 3.269531 -0.671875 3.390625 -0.558594 C 3.511719 -0.445312 3.640625 -0.375 3.773438 -0.351562 C 3.90625 -0.332031 4.035156 -0.320312 4.164062 -0.320312 C 4.21875 -0.320312 4.25 -0.289062 4.25 -0.222656 C 4.25 -0.140625 4.21875 -0.0742188 4.164062 -0.0273438 C 4.105469 0.0234375 4.027344 0.0585938 3.925781 0.0820312 C 3.824219 0.105469 3.710938 0.117188 3.585938 0.117188 Z M 1.652344 -1.90625 C 1.792969 -1.90625 1.910156 -1.9375 2 -2 C 2.09375 -2.0625 2.164062 -2.148438 2.210938 -2.257812 C 2.257812 -2.367188 2.28125 -2.492188 2.28125 -2.632812 C 2.28125 -2.804688 2.257812 -2.949219 2.214844 -3.0625 C 2.171875 -3.175781 2.105469 -3.261719 2.015625 -3.320312 C 1.925781 -3.378906 1.8125 -3.40625 1.671875 -3.40625 C 1.589844 -3.40625 1.53125 -3.375 1.496094 -3.308594 C 1.460938 -3.242188 1.445312 -3.105469 1.441406 -2.894531 C 1.441406 -2.8125 1.441406 -2.703125 1.441406 -2.574219 C 1.441406 -2.445312 1.441406 -2.289062 1.441406 -2.113281 C 1.441406 -2.035156 1.460938 -1.980469 1.496094 -1.953125 C 1.535156 -1.921875 1.585938 -1.90625 1.652344 -1.90625 Z "/>
</g>
<g id="glyph-0-4">
<path d="M 0.121094 0.0273438 C 0.078125 0.0273438 0.046875 0.0195312 0.015625 0.0078125 C -0.0117188 -0.00390625 -0.0234375 -0.0273438 -0.0234375 -0.0625 C -0.0234375 -0.0976562 -0.0117188 -0.125 0.0117188 -0.140625 C 0.0390625 -0.160156 0.0703125 -0.171875 0.109375 -0.1875 C 0.21875 -0.214844 0.3125 -0.261719 0.390625 -0.324219 C 0.472656 -0.386719 0.53125 -0.464844 0.574219 -0.554688 C 0.664062 -0.765625 0.75 -0.96875 0.832031 -1.171875 C 0.914062 -1.371094 0.996094 -1.574219 1.074219 -1.769531 C 1.152344 -1.96875 1.230469 -2.171875 1.304688 -2.375 C 1.382812 -2.578125 1.460938 -2.789062 1.539062 -3 C 1.59375 -3.148438 1.628906 -3.257812 1.644531 -3.328125 C 1.660156 -3.398438 1.671875 -3.4375 1.679688 -3.453125 C 1.746094 -3.46875 1.808594 -3.484375 1.867188 -3.5 C 1.925781 -3.515625 1.988281 -3.535156 2.058594 -3.5625 C 2.121094 -3.585938 2.175781 -3.621094 2.222656 -3.660156 C 2.269531 -3.699219 2.304688 -3.730469 2.328125 -3.753906 C 2.34375 -3.765625 2.359375 -3.773438 2.375 -3.773438 C 2.386719 -3.777344 2.402344 -3.765625 2.414062 -3.742188 C 2.429688 -3.71875 2.4375 -3.691406 2.449219 -3.667969 C 2.457031 -3.644531 2.464844 -3.621094 2.472656 -3.589844 C 2.546875 -3.339844 2.628906 -3.085938 2.710938 -2.832031 C 2.792969 -2.574219 2.875 -2.316406 2.960938 -2.0625 C 3.042969 -1.804688 3.125 -1.550781 3.207031 -1.300781 C 3.289062 -1.054688 3.367188 -0.8125 3.441406 -0.574219 C 3.464844 -0.5 3.5 -0.4375 3.546875 -0.382812 C 3.59375 -0.332031 3.644531 -0.292969 3.707031 -0.261719 C 3.765625 -0.230469 3.832031 -0.203125 3.90625 -0.183594 C 3.945312 -0.171875 3.976562 -0.15625 4.003906 -0.140625 C 4.027344 -0.125 4.039062 -0.0976562 4.039062 -0.0625 C 4.039062 -0.0390625 4.03125 -0.0195312 4.007812 -0.0078125 C 3.984375 0.0078125 3.957031 0.015625 3.925781 0.015625 C 3.851562 0.015625 3.761719 0.0117188 3.652344 0.0078125 C 3.542969 0.00390625 3.433594 0 3.324219 -0.00390625 C 3.214844 -0.0078125 3.117188 -0.0117188 3.03125 -0.0117188 C 2.957031 -0.0117188 2.871094 -0.0078125 2.769531 -0.00390625 C 2.667969 -0.00390625 2.566406 0 2.460938 0.0078125 C 2.359375 0.0117188 2.269531 0.0117188 2.195312 0.0117188 C 2.164062 0.0117188 2.132812 0.0078125 2.109375 -0.0078125 C 2.085938 -0.0234375 2.070312 -0.0429688 2.070312 -0.0664062 C 2.070312 -0.0976562 2.085938 -0.125 2.109375 -0.144531 C 2.136719 -0.164062 2.167969 -0.179688 2.203125 -0.1875 C 2.339844 -0.214844 2.441406 -0.25 2.507812 -0.296875 C 2.570312 -0.34375 2.589844 -0.417969 2.566406 -0.519531 C 2.550781 -0.589844 2.53125 -0.664062 2.511719 -0.738281 C 2.492188 -0.816406 2.46875 -0.894531 2.449219 -0.976562 C 2.425781 -1.058594 2.40625 -1.132812 2.386719 -1.207031 C 2.378906 -1.238281 2.367188 -1.261719 2.355469 -1.273438 C 2.34375 -1.289062 2.320312 -1.296875 2.285156 -1.296875 L 1.304688 -1.296875 C 1.277344 -1.296875 1.257812 -1.289062 1.242188 -1.273438 C 1.230469 -1.257812 1.21875 -1.234375 1.210938 -1.203125 C 1.195312 -1.148438 1.179688 -1.097656 1.160156 -1.042969 C 1.144531 -0.992188 1.125 -0.941406 1.109375 -0.886719 C 1.09375 -0.835938 1.074219 -0.785156 1.058594 -0.734375 C 1.042969 -0.683594 1.03125 -0.632812 1.019531 -0.582031 C 0.992188 -0.472656 1 -0.386719 1.050781 -0.328125 C 1.097656 -0.269531 1.199219 -0.222656 1.359375 -0.183594 C 1.449219 -0.164062 1.492188 -0.125 1.492188 -0.0664062 C 1.492188 -0.0390625 1.480469 -0.0195312 1.460938 -0.0078125 C 1.441406 0.00390625 1.410156 0.0117188 1.367188 0.0117188 C 1.257812 0.0117188 1.15625 0.0078125 1.066406 0.00390625 C 0.972656 -0.00390625 0.871094 -0.00390625 0.761719 -0.00390625 C 0.652344 -0.00390625 0.546875 0 0.445312 0.0117188 C 0.34375 0.0234375 0.238281 0.0273438 0.121094 0.0273438 Z M 1.460938 -1.59375 L 2.183594 -1.59375 C 2.238281 -1.59375 2.265625 -1.605469 2.265625 -1.632812 C 2.265625 -1.644531 2.265625 -1.652344 2.261719 -1.660156 C 2.261719 -1.667969 2.257812 -1.675781 2.253906 -1.691406 L 1.886719 -2.941406 C 1.871094 -2.984375 1.859375 -3.003906 1.847656 -3.003906 C 1.839844 -3.003906 1.828125 -2.984375 1.8125 -2.941406 L 1.371094 -1.691406 C 1.363281 -1.675781 1.359375 -1.660156 1.359375 -1.648438 C 1.359375 -1.628906 1.371094 -1.613281 1.390625 -1.605469 C 1.410156 -1.597656 1.433594 -1.59375 1.460938 -1.59375 Z "/>
</g>
<g id="glyph-0-5">
<path d="M 1.144531 0.0195312 C 1.117188 0.0195312 1.089844 0.0117188 1.0625 -0.00390625 C 1.035156 -0.015625 1.019531 -0.0351562 1.019531 -0.0625 C 1.019531 -0.09375 1.03125 -0.117188 1.054688 -0.136719 C 1.082031 -0.15625 1.113281 -0.171875 1.152344 -0.179688 C 1.292969 -0.207031 1.394531 -0.246094 1.457031 -0.292969 C 1.519531 -0.34375 1.554688 -0.425781 1.554688 -0.542969 L 1.554688 -2.835938 C 1.554688 -2.980469 1.550781 -3.089844 1.542969 -3.160156 C 1.535156 -3.230469 1.523438 -3.273438 1.511719 -3.296875 C 1.5 -3.320312 1.484375 -3.335938 1.464844 -3.34375 C 1.433594 -3.359375 1.390625 -3.371094 1.335938 -3.375 C 1.28125 -3.378906 1.238281 -3.378906 1.207031 -3.378906 L 1.082031 -3.378906 C 0.964844 -3.378906 0.855469 -3.351562 0.746094 -3.292969 C 0.640625 -3.234375 0.554688 -3.164062 0.492188 -3.078125 C 0.476562 -3.050781 0.449219 -3.015625 0.414062 -2.972656 C 0.378906 -2.925781 0.34375 -2.886719 0.304688 -2.851562 C 0.265625 -2.816406 0.226562 -2.796875 0.1875 -2.796875 C 0.160156 -2.796875 0.136719 -2.808594 0.125 -2.828125 C 0.113281 -2.847656 0.109375 -2.867188 0.109375 -2.890625 C 0.109375 -2.9375 0.121094 -2.984375 0.144531 -3.035156 C 0.214844 -3.171875 0.269531 -3.292969 0.300781 -3.390625 C 0.332031 -3.492188 0.355469 -3.609375 0.367188 -3.742188 C 0.375 -3.796875 0.390625 -3.832031 0.417969 -3.851562 C 0.441406 -3.871094 0.46875 -3.882812 0.503906 -3.882812 C 0.53125 -3.882812 0.558594 -3.859375 0.589844 -3.8125 C 0.621094 -3.765625 0.652344 -3.726562 0.683594 -3.695312 C 0.722656 -3.664062 0.785156 -3.640625 0.871094 -3.625 C 0.957031 -3.609375 1.027344 -3.601562 1.082031 -3.601562 L 3.175781 -3.609375 C 3.269531 -3.609375 3.347656 -3.617188 3.410156 -3.632812 C 3.476562 -3.652344 3.523438 -3.667969 3.554688 -3.6875 C 3.613281 -3.722656 3.664062 -3.757812 3.699219 -3.800781 C 3.734375 -3.839844 3.773438 -3.863281 3.824219 -3.863281 C 3.847656 -3.863281 3.863281 -3.851562 3.871094 -3.835938 C 3.878906 -3.820312 3.882812 -3.796875 3.882812 -3.765625 C 3.882812 -3.75 3.882812 -3.730469 3.878906 -3.710938 C 3.878906 -3.691406 3.875 -3.667969 3.871094 -3.652344 C 3.855469 -3.578125 3.835938 -3.507812 3.816406 -3.445312 C 3.800781 -3.378906 3.785156 -3.320312 3.773438 -3.261719 C 3.761719 -3.203125 3.757812 -3.140625 3.757812 -3.078125 L 3.757812 -2.96875 C 3.757812 -2.910156 3.75 -2.859375 3.738281 -2.824219 C 3.722656 -2.789062 3.699219 -2.769531 3.664062 -2.769531 C 3.628906 -2.769531 3.597656 -2.785156 3.578125 -2.820312 C 3.554688 -2.855469 3.53125 -2.910156 3.507812 -2.988281 C 3.464844 -3.125 3.402344 -3.222656 3.324219 -3.285156 C 3.242188 -3.347656 3.121094 -3.378906 2.960938 -3.378906 L 2.671875 -3.378906 C 2.609375 -3.378906 2.558594 -3.367188 2.519531 -3.335938 C 2.480469 -3.308594 2.449219 -3.253906 2.433594 -3.167969 C 2.417969 -3.082031 2.40625 -2.957031 2.40625 -2.785156 L 2.40625 -0.546875 C 2.40625 -0.4375 2.4375 -0.359375 2.5 -0.308594 C 2.5625 -0.261719 2.664062 -0.21875 2.804688 -0.179688 C 2.84375 -0.167969 2.875 -0.15625 2.902344 -0.140625 C 2.925781 -0.125 2.9375 -0.101562 2.9375 -0.0664062 C 2.9375 -0.0390625 2.929688 -0.0195312 2.90625 -0.0078125 C 2.882812 0.0078125 2.855469 0.015625 2.824219 0.015625 C 2.742188 0.015625 2.648438 0.0117188 2.546875 0.0078125 C 2.445312 0.00390625 2.34375 0 2.242188 -0.00390625 C 2.140625 -0.0078125 2.054688 -0.0078125 1.976562 -0.0078125 C 1.898438 -0.0078125 1.8125 -0.0078125 1.714844 -0.00390625 C 1.617188 0 1.519531 0.00390625 1.417969 0.0117188 C 1.320312 0.015625 1.226562 0.0195312 1.144531 0.0195312 Z "/>
</g>
</g>
</defs>
<g fill="rgb(23.921569%, 22.352941%, 16.078431%)" fill-opacity="1">
<use xlink:href="#glyph-0-0" x="30" y="25.594727"/>
<use xlink:href="#glyph-0-1" x="34" y="25.594727"/>
<use xlink:href="#glyph-0-2" x="37" y="25.594727"/>
<use xlink:href="#glyph-0-3" x="40" y="25.594727"/>
<use xlink:href="#glyph-0-4" x="44" y="25.594727"/>
<use xlink:href="#glyph-0-5" x="47" y="25.594727"/>
<use xlink:href="#glyph-0-0" x="51" y="25.594727"/>
<use xlink:href="#glyph-0-3" x="55" y="25.594727"/>
</g>
</svg>
