<?xml version="1.0" encoding="UTF-8"?>
<svg xmlns="http://www.w3.org/2000/svg" xmlns:xlink="http://www.w3.org/1999/xlink" width="3840" height="2160" viewBox="0 0 3840 2160">
<defs>
<g>
<g id="glyph-0-0">
<path d="M 4.421875 0.03125 C 4.375 0.03125 4.296875 0.0273438 4.191406 0.0195312 C 4.085938 0.0117188 3.964844 0.0078125 3.832031 0 C 3.699219 -0.0078125 3.558594 -0.015625 3.414062 -0.0195312 C 3.269531 -0.0273438 3.132812 -0.03125 2.996094 -0.03125 C 2.863281 -0.03125 2.675781 -0.0273438 2.429688 -0.0195312 C 2.183594 -0.0117188 1.921875 -0.0078125 1.652344 -0.00390625 C 1.382812 0 1.144531 0.00390625 0.941406 0.0117188 C 0.734375 0.0195312 0.605469 0.0195312 0.550781 0.0195312 C 0.519531 0.0195312 0.480469 0 0.421875 -0.046875 C 0.367188 -0.09375 0.335938 -0.128906 0.335938 -0.160156 C 0.335938 -0.195312 0.34375 -0.21875 0.359375 -0.230469 C 0.375 -0.246094 0.394531 -0.265625 0.421875 -0.296875 L 2.226562 -2.164062 C 2.578125 -2.53125 2.871094 -2.941406 3.101562 -3.394531 C 3.335938 -3.847656 3.453125 -4.308594 3.453125 -4.769531 C 3.453125 -5.144531 3.339844 -5.4375 3.113281 -5.652344 C 2.886719 -5.867188 2.625 -5.972656 2.320312 -5.972656 C 2.03125 -5.972656 1.765625 -5.894531 1.519531 -5.738281 C 1.273438 -5.578125 1.078125 -5.371094 0.929688 -5.121094 C 0.90625 -5.078125 0.882812 -5.042969 0.851562 -5.015625 C 0.820312 -4.988281 0.785156 -4.972656 0.75 -4.972656 C 0.722656 -4.972656 0.6875 -5 0.648438 -5.0625 C 0.609375 -5.121094 0.589844 -5.195312 0.589844 -5.289062 C 0.589844 -5.375 0.640625 -5.488281 0.746094 -5.636719 C 0.847656 -5.785156 0.988281 -5.9375 1.171875 -6.089844 C 1.355469 -6.246094 1.574219 -6.378906 1.824219 -6.488281 C 2.078125 -6.597656 2.355469 -6.648438 2.648438 -6.648438 C 3 -6.648438 3.304688 -6.578125 3.558594 -6.429688 C 3.8125 -6.28125 4.003906 -6.078125 4.136719 -5.816406 C 4.269531 -5.554688 4.339844 -5.253906 4.339844 -4.910156 C 4.339844 -4.71875 4.304688 -4.515625 4.238281 -4.296875 C 4.171875 -4.078125 4.078125 -3.863281 3.964844 -3.652344 C 3.847656 -3.441406 3.714844 -3.242188 3.566406 -3.0625 C 3.476562 -2.949219 3.339844 -2.800781 3.160156 -2.613281 C 2.980469 -2.425781 2.789062 -2.226562 2.582031 -2.015625 C 2.375 -1.804688 2.175781 -1.605469 1.988281 -1.417969 C 1.804688 -1.234375 1.648438 -1.078125 1.53125 -0.957031 C 1.410156 -0.832031 1.351562 -0.761719 1.351562 -0.75 C 1.351562 -0.714844 1.398438 -0.691406 1.5 -0.675781 C 1.617188 -0.667969 1.753906 -0.660156 1.90625 -0.65625 C 2.058594 -0.648438 2.230469 -0.644531 2.429688 -0.644531 C 2.632812 -0.644531 2.835938 -0.648438 3.039062 -0.65625 C 3.242188 -0.660156 3.441406 -0.667969 3.632812 -0.675781 C 3.835938 -0.691406 3.992188 -0.707031 4.105469 -0.726562 C 4.21875 -0.75 4.3125 -0.792969 4.390625 -0.859375 C 4.46875 -0.925781 4.550781 -1.03125 4.632812 -1.171875 C 4.660156 -1.214844 4.699219 -1.265625 4.746094 -1.324219 C 4.789062 -1.382812 4.839844 -1.414062 4.898438 -1.414062 C 4.933594 -1.414062 4.953125 -1.398438 4.960938 -1.371094 C 4.96875 -1.34375 4.972656 -1.316406 4.972656 -1.289062 C 4.972656 -1.253906 4.953125 -1.183594 4.914062 -1.082031 C 4.875 -0.980469 4.832031 -0.855469 4.78125 -0.707031 C 4.730469 -0.558594 4.691406 -0.398438 4.65625 -0.222656 C 4.632812 -0.109375 4.597656 -0.0390625 4.550781 -0.0117188 C 4.5 0.015625 4.457031 0.03125 4.421875 0.03125 Z "/>
</g>
<g id="glyph-0-1">
<path d="M 2.585938 0.148438 C 2.226562 0.148438 1.914062 0.0507812 1.652344 -0.148438 C 1.386719 -0.34375 1.167969 -0.605469 0.992188 -0.933594 C 0.816406 -1.261719 0.6875 -1.621094 0.601562 -2.015625 C 0.515625 -2.410156 0.476562 -2.800781 0.476562 -3.1875 C 0.476562 -3.589844 0.515625 -3.992188 0.601562 -4.402344 C 0.6875 -4.808594 0.816406 -5.183594 0.996094 -5.519531 C 1.175781 -5.859375 1.40625 -6.132812 1.6875 -6.339844 C 1.96875 -6.546875 2.304688 -6.648438 2.691406 -6.648438 C 3.050781 -6.648438 3.363281 -6.550781 3.625 -6.355469 C 3.890625 -6.15625 4.109375 -5.894531 4.285156 -5.566406 C 4.460938 -5.242188 4.589844 -4.882812 4.675781 -4.492188 C 4.761719 -4.101562 4.804688 -3.714844 4.804688 -3.335938 C 4.804688 -2.941406 4.761719 -2.539062 4.675781 -2.132812 C 4.589844 -1.722656 4.460938 -1.347656 4.28125 -1.003906 C 4.101562 -0.660156 3.871094 -0.378906 3.59375 -0.167969 C 3.316406 0.0429688 2.980469 0.148438 2.585938 0.148438 Z M 2.765625 -0.125 C 3.046875 -0.125 3.273438 -0.269531 3.445312 -0.554688 C 3.617188 -0.839844 3.742188 -1.210938 3.820312 -1.667969 C 3.898438 -2.125 3.9375 -2.617188 3.9375 -3.144531 C 3.9375 -3.539062 3.90625 -3.925781 3.847656 -4.308594 C 3.789062 -4.6875 3.695312 -5.03125 3.574219 -5.339844 C 3.449219 -5.648438 3.296875 -5.898438 3.121094 -6.078125 C 2.941406 -6.261719 2.730469 -6.355469 2.492188 -6.355469 C 2.210938 -6.355469 1.984375 -6.21875 1.820312 -5.941406 C 1.65625 -5.667969 1.535156 -5.304688 1.460938 -4.851562 C 1.386719 -4.398438 1.351562 -3.90625 1.351562 -3.378906 C 1.351562 -2.984375 1.382812 -2.59375 1.441406 -2.207031 C 1.5 -1.820312 1.589844 -1.46875 1.703125 -1.15625 C 1.820312 -0.84375 1.96875 -0.59375 2.144531 -0.40625 C 2.320312 -0.21875 2.527344 -0.125 2.765625 -0.125 Z "/>
</g>
<g id="glyph-0-2">
<path d="M 1.214844 0.148438 C 1.058594 0.148438 0.921875 0.0898438 0.808594 -0.0273438 C 0.691406 -0.144531 0.632812 -0.277344 0.632812 -0.433594 C 0.632812 -0.59375 0.691406 -0.730469 0.808594 -0.84375 C 0.925781 -0.957031 1.058594 -1.011719 1.214844 -1.011719 C 1.375 -1.011719 1.511719 -0.957031 1.625 -0.84375 C 1.738281 -0.730469 1.792969 -0.59375 1.792969 -0.433594 C 1.792969 -0.277344 1.738281 -0.140625 1.625 -0.0273438 C 1.511719 0.0898438 1.375 0.148438 1.214844 0.148438 Z "/>
</g>
<g id="glyph-0-3">
<path d="M 2.554688 0.148438 C 2.230469 0.148438 1.925781 0.078125 1.640625 -0.0585938 C 1.355469 -0.195312 1.125 -0.386719 0.949219 -0.632812 C 0.773438 -0.878906 0.6875 -1.164062 0.6875 -1.488281 C 0.6875 -1.796875 0.765625 -2.0625 0.929688 -2.28125 C 1.089844 -2.5 1.28125 -2.679688 1.503906 -2.824219 C 1.726562 -2.96875 1.925781 -3.089844 2.101562 -3.1875 C 2.148438 -3.214844 2.167969 -3.238281 2.152344 -3.25 C 2.140625 -3.265625 2.109375 -3.289062 2.070312 -3.324219 C 1.859375 -3.507812 1.660156 -3.683594 1.472656 -3.847656 C 1.285156 -4.011719 1.132812 -4.199219 1.019531 -4.40625 C 0.902344 -4.613281 0.84375 -4.867188 0.84375 -5.160156 C 0.84375 -5.4375 0.941406 -5.6875 1.128906 -5.910156 C 1.320312 -6.136719 1.5625 -6.316406 1.859375 -6.449219 C 2.152344 -6.582031 2.457031 -6.648438 2.765625 -6.648438 C 3.046875 -6.648438 3.316406 -6.59375 3.574219 -6.476562 C 3.832031 -6.359375 4.039062 -6.195312 4.199219 -5.984375 C 4.363281 -5.773438 4.445312 -5.523438 4.445312 -5.234375 C 4.445312 -4.980469 4.378906 -4.777344 4.253906 -4.617188 C 4.128906 -4.460938 4.003906 -4.328125 3.882812 -4.222656 C 3.785156 -4.136719 3.699219 -4.066406 3.621094 -4.007812 C 3.542969 -3.945312 3.445312 -3.871094 3.324219 -3.777344 C 3.234375 -3.714844 3.1875 -3.671875 3.1875 -3.648438 C 3.1875 -3.621094 3.214844 -3.59375 3.273438 -3.558594 C 3.539062 -3.375 3.777344 -3.195312 3.980469 -3.019531 C 4.183594 -2.84375 4.34375 -2.652344 4.460938 -2.449219 C 4.578125 -2.246094 4.632812 -2.003906 4.632812 -1.730469 C 4.632812 -1.363281 4.53125 -1.042969 4.328125 -0.761719 C 4.125 -0.480469 3.863281 -0.257812 3.546875 -0.09375 C 3.230469 0.0664062 2.898438 0.148438 2.554688 0.148438 Z M 2.703125 -0.160156 C 3.011719 -0.160156 3.269531 -0.273438 3.476562 -0.5 C 3.683594 -0.730469 3.789062 -1 3.789062 -1.308594 C 3.789062 -1.527344 3.726562 -1.734375 3.605469 -1.933594 C 3.480469 -2.128906 3.324219 -2.3125 3.136719 -2.484375 C 2.945312 -2.65625 2.746094 -2.816406 2.542969 -2.957031 C 2.5 -2.992188 2.464844 -3.015625 2.433594 -3.035156 C 2.402344 -3.050781 2.367188 -3.0625 2.332031 -3.0625 C 2.304688 -3.0625 2.261719 -3.039062 2.207031 -2.996094 C 1.980469 -2.8125 1.8125 -2.628906 1.699219 -2.445312 C 1.585938 -2.257812 1.53125 -1.996094 1.53125 -1.65625 C 1.53125 -1.410156 1.578125 -1.171875 1.667969 -0.945312 C 1.757812 -0.714844 1.894531 -0.527344 2.070312 -0.378906 C 2.246094 -0.230469 2.457031 -0.160156 2.703125 -0.160156 Z M 3.039062 -3.777344 C 3.285156 -3.984375 3.445312 -4.207031 3.519531 -4.453125 C 3.59375 -4.699219 3.632812 -4.984375 3.632812 -5.308594 C 3.632812 -5.605469 3.554688 -5.859375 3.402344 -6.074219 C 3.253906 -6.289062 3.023438 -6.398438 2.710938 -6.398438 C 2.550781 -6.398438 2.390625 -6.351562 2.226562 -6.257812 C 2.066406 -6.167969 1.929688 -6.042969 1.820312 -5.890625 C 1.710938 -5.734375 1.65625 -5.5625 1.65625 -5.371094 C 1.65625 -5.105469 1.707031 -4.894531 1.808594 -4.738281 C 1.910156 -4.585938 2.054688 -4.441406 2.242188 -4.3125 C 2.429688 -4.183594 2.644531 -4.015625 2.890625 -3.8125 C 2.914062 -3.796875 2.9375 -3.785156 2.964844 -3.773438 C 2.992188 -3.761719 3.019531 -3.765625 3.039062 -3.777344 Z "/>
</g>
<g id="glyph-0-4">
<path d="M 1.5 -2.777344 C 1.203125 -2.777344 0.957031 -2.871094 0.761719 -3.054688 C 0.5625 -3.242188 0.414062 -3.476562 0.3125 -3.757812 C 0.210938 -4.039062 0.160156 -4.328125 0.160156 -4.625 C 0.160156 -4.941406 0.21875 -5.242188 0.34375 -5.527344 C 0.464844 -5.8125 0.644531 -6.042969 0.875 -6.222656 C 1.109375 -6.402344 1.378906 -6.492188 1.6875 -6.492188 C 1.976562 -6.492188 2.21875 -6.40625 2.410156 -6.234375 C 2.605469 -6.0625 2.753906 -5.839844 2.855469 -5.574219 C 2.957031 -5.304688 3.007812 -5.027344 3.007812 -4.738281 C 3.007812 -4.421875 2.949219 -4.113281 2.835938 -3.8125 C 2.71875 -3.507812 2.546875 -3.261719 2.320312 -3.066406 C 2.097656 -2.871094 1.824219 -2.777344 1.5 -2.777344 Z M 1.613281 -3.007812 C 1.847656 -3.007812 2.019531 -3.09375 2.128906 -3.261719 C 2.238281 -3.429688 2.304688 -3.640625 2.332031 -3.890625 C 2.359375 -4.140625 2.375 -4.378906 2.375 -4.613281 C 2.375 -4.851562 2.359375 -5.09375 2.320312 -5.339844 C 2.285156 -5.585938 2.214844 -5.796875 2.101562 -5.96875 C 1.988281 -6.140625 1.8125 -6.226562 1.574219 -6.226562 C 1.355469 -6.226562 1.1875 -6.148438 1.078125 -5.992188 C 0.964844 -5.832031 0.886719 -5.636719 0.851562 -5.410156 C 0.8125 -5.179688 0.792969 -4.957031 0.792969 -4.738281 C 0.792969 -4.550781 0.800781 -4.355469 0.816406 -4.152344 C 0.835938 -3.953125 0.871094 -3.765625 0.921875 -3.59375 C 0.976562 -3.421875 1.058594 -3.28125 1.167969 -3.171875 C 1.277344 -3.0625 1.425781 -3.007812 1.613281 -3.007812 Z M 5.300781 -6.839844 C 5.347656 -6.917969 5.40625 -6.964844 5.472656 -6.988281 C 5.539062 -7.007812 5.617188 -7.019531 5.710938 -7.019531 C 5.746094 -7.019531 5.777344 -7.003906 5.8125 -6.976562 C 5.84375 -6.949219 5.859375 -6.917969 5.859375 -6.882812 C 5.859375 -6.863281 5.855469 -6.847656 5.847656 -6.839844 L 1.222656 0.496094 C 1.179688 0.566406 1.128906 0.609375 1.0625 0.628906 C 0.996094 0.644531 0.921875 0.65625 0.84375 0.65625 C 0.800781 0.65625 0.761719 0.640625 0.722656 0.613281 C 0.683594 0.585938 0.664062 0.554688 0.664062 0.527344 C 0.664062 0.511719 0.667969 0.503906 0.675781 0.496094 Z M 5.195312 0.179688 C 4.898438 0.179688 4.652344 0.0859375 4.453125 -0.101562 C 4.257812 -0.289062 4.109375 -0.519531 4.007812 -0.800781 C 3.90625 -1.082031 3.851562 -1.371094 3.851562 -1.667969 C 3.851562 -1.984375 3.914062 -2.285156 4.039062 -2.570312 C 4.160156 -2.855469 4.339844 -3.085938 4.570312 -3.265625 C 4.800781 -3.445312 5.074219 -3.535156 5.382812 -3.535156 C 5.671875 -3.535156 5.914062 -3.449219 6.105469 -3.277344 C 6.300781 -3.105469 6.449219 -2.886719 6.550781 -2.617188 C 6.652344 -2.351562 6.703125 -2.074219 6.703125 -1.785156 C 6.703125 -1.46875 6.644531 -1.15625 6.527344 -0.855469 C 6.414062 -0.550781 6.242188 -0.304688 6.015625 -0.109375 C 5.792969 0.0820312 5.515625 0.179688 5.195312 0.179688 Z M 5.308594 -0.0546875 C 5.542969 -0.0546875 5.710938 -0.136719 5.820312 -0.304688 C 5.929688 -0.472656 6 -0.683594 6.027344 -0.933594 C 6.054688 -1.183594 6.070312 -1.425781 6.070312 -1.65625 C 6.070312 -1.894531 6.050781 -2.140625 6.015625 -2.386719 C 5.980469 -2.632812 5.90625 -2.839844 5.796875 -3.011719 C 5.683594 -3.183594 5.507812 -3.273438 5.265625 -3.273438 C 5.046875 -3.273438 4.882812 -3.191406 4.769531 -3.035156 C 4.65625 -2.875 4.582031 -2.683594 4.542969 -2.453125 C 4.503906 -2.226562 4.484375 -2.003906 4.484375 -1.785156 C 4.484375 -1.59375 4.496094 -1.398438 4.511719 -1.199219 C 4.53125 -0.996094 4.566406 -0.8125 4.617188 -0.636719 C 4.671875 -0.464844 4.75 -0.324219 4.859375 -0.214844 C 4.96875 -0.105469 5.121094 -0.0546875 5.308594 -0.0546875 Z "/>
</g>
</g>
</defs>
<g fill="rgb(85.098039%, 46.666667%, 34.117647%)" fill-opacity="1">
<use xlink:href="#glyph-0-0" x="30" y="30.629883"/>
<use xlink:href="#glyph-0-1" x="35" y="30.629883"/>
<use xlink:href="#glyph-0-2" x="40" y="30.629883"/>
<use xlink:href="#glyph-0-3" x="42" y="30.629883"/>
<use xlink:href="#glyph-0-4" x="47" y="30.629883"/>
</g>
</svg>
